<svg width="68" height="50" viewBox="0 0 68 50" fill="none" xmlns="http://www.w3.org/2000/svg">
<g filter="url(#filter0_d_1445_18567)">
<rect x="1" y="1" width="66" height="48" rx="4" fill="#F4B315"/>
</g>
<path fill-rule="evenodd" clip-rule="evenodd" d="M33.5284 13.0062C33.4961 13.0108 33.3062 13.0264 33.1064 13.0407C31.1416 13.1821 29.2533 13.8138 27.5449 14.9013C26.9609 15.273 26.9335 15.2972 25.667 16.5578C24.9985 17.2231 24.4088 17.8246 24.3564 17.8945C24.2757 18.0021 24.2617 18.0374 24.265 18.1249C24.2728 18.3303 24.4 18.4591 24.5952 18.4593C24.7261 18.4594 24.8143 18.4006 24.9301 18.2361C25.2978 17.7136 26.1135 16.8465 26.6953 16.3596C28.4272 14.9099 30.3687 14.0685 32.6844 13.7639C33.0548 13.7152 33.1859 13.71 34.0324 13.7106C34.8751 13.7113 35.0093 13.7167 35.3564 13.7645C36.63 13.9397 37.7362 14.2588 38.7561 14.7452C39.0496 14.8851 39.1623 14.9042 39.2938 14.8362C39.4655 14.7474 39.5195 14.4765 39.395 14.3284C39.3183 14.2373 38.9482 14.0559 38.3811 13.8317C37.3266 13.4147 36.2718 13.1623 35.122 13.0517C34.7689 13.0177 33.6678 12.9863 33.5284 13.0062ZM33.4815 14.4718C31.2135 14.5941 29.0806 15.4146 27.3277 16.8388C26.8902 17.1943 26.1663 17.9264 25.8064 18.3773C24.4851 20.0329 23.7245 21.8857 23.5049 23.9833C23.4519 24.4898 23.4518 25.4927 23.5046 25.9888C23.5457 26.3748 23.624 26.9052 23.661 27.0485C23.707 27.2269 23.727 27.5944 23.7039 27.8383C23.6542 28.3638 23.462 28.8278 23.1203 29.2467C22.9419 29.4655 22.9101 29.56 22.9657 29.7056C23.0162 29.8379 23.114 29.9101 23.2619 29.9243C23.414 29.939 23.4975 29.8843 23.6857 29.647C24.1862 29.0157 24.4351 28.257 24.4011 27.4666C24.3936 27.2924 24.3665 27.0496 24.3408 26.9271C24.131 25.9251 24.0915 24.6979 24.2354 23.6549C24.5006 21.7328 25.3351 19.9258 26.6457 18.4359C26.8188 18.2391 27.4212 17.6511 27.6329 17.4722C29.2148 16.1354 31.183 15.3341 33.2778 15.1738C33.7214 15.1399 34.7264 15.1579 35.1202 15.2069C35.4737 15.2509 35.578 15.2193 35.6705 15.0404C35.7553 14.8764 35.6806 14.6619 35.5137 14.5896C35.3101 14.5014 34.1639 14.4349 33.4815 14.4718ZM36.9332 14.9877C36.8332 15.0488 36.7637 15.1659 36.7636 15.2737C36.7634 15.4765 36.8499 15.5633 37.1548 15.6663C40.3056 16.7305 42.7391 19.3733 43.5498 22.6111C43.7698 23.4899 43.9613 24.7689 44.059 26.0123C44.0789 26.266 44.0891 26.8316 44.0884 27.6542C44.0875 28.9421 44.073 29.2447 43.9684 30.1654C43.9471 30.3531 43.9373 30.5372 43.9466 30.5743C43.9559 30.6114 44.0038 30.682 44.053 30.7313C44.1345 30.8128 44.1537 30.8208 44.2683 30.8207C44.4174 30.8206 44.5265 30.7634 44.5818 30.6564C44.6454 30.5334 44.7297 29.7077 44.7829 28.6863C44.8133 28.1033 44.7992 26.5787 44.7587 26.0709C44.6609 24.845 44.5332 23.8862 44.3447 22.963C43.7378 19.9904 41.9696 17.4881 39.3774 15.9335C38.7949 15.5843 38.0247 15.23 37.3775 15.0138C37.1232 14.9288 37.038 14.9239 36.9332 14.9877ZM40.4919 15.19C40.4012 15.2664 40.3503 15.3622 40.3503 15.4566C40.3503 15.6107 40.4024 15.6739 40.7382 15.9261C42.7923 17.4692 44.2097 19.5351 44.8852 21.9706C45.1835 23.0461 45.2599 23.6118 45.3268 25.2429C45.3321 25.3722 45.3436 25.4113 45.3912 25.4629C45.5545 25.6401 45.8129 25.6228 45.9473 25.4259C45.9973 25.3525 46 25.3262 46 24.9113C46 23.3293 45.6333 21.6427 44.9568 20.113C44.1689 18.3317 42.9097 16.7261 41.3595 15.5263C40.8912 15.1639 40.8317 15.1286 40.6888 15.1286C40.5893 15.1286 40.5505 15.1407 40.4919 15.19ZM33.165 15.9512C30.4401 16.2287 28.0908 17.6028 26.5307 19.8316C25.8294 20.8334 25.3184 22.0504 25.0759 23.2957C25.0268 23.5477 25.0418 23.6415 25.1483 23.748C25.2729 23.8726 25.4578 23.8861 25.5923 23.7803C25.6789 23.7121 25.7118 23.6352 25.7564 23.3969C26.3021 20.4796 28.4629 18.0068 31.3013 17.0514C34.7921 15.8763 38.6119 17.0894 40.7802 20.0617C41.632 21.2292 42.0713 22.3462 42.3641 24.0889C42.4401 24.5413 42.4558 24.5965 42.5262 24.6599C42.7008 24.8173 42.9725 24.7619 43.079 24.5473C43.1306 24.4433 43.1275 24.413 42.984 23.608C42.6055 21.4859 41.759 19.8748 40.2624 18.4284C39.0593 17.2655 37.4532 16.429 35.7724 16.0898C35.1858 15.9715 34.909 15.9459 34.1262 15.9376C33.7136 15.9333 33.281 15.9394 33.165 15.9512ZM33.7628 17.3709C33.1704 17.4173 32.9854 17.4365 32.7434 17.4771C32.1127 17.5827 31.4368 17.7838 30.9379 18.0142C30.6784 18.134 30.6332 18.1882 30.6332 18.3788C30.6332 18.5201 30.6382 18.534 30.7182 18.614C30.8555 18.7514 30.953 18.75 31.3062 18.6053C32.0387 18.3054 32.7112 18.1424 33.4698 18.0812C33.8954 18.0468 34.5962 18.0695 35.0053 18.131C36.1796 18.3076 37.3088 18.7896 38.2379 19.5107C38.5431 19.7476 38.6827 19.7706 38.8499 19.6114C38.9637 19.5031 38.989 19.3912 38.9328 19.2442C38.8998 19.1577 38.852 19.108 38.6546 18.9552C37.5287 18.0836 36.1243 17.5301 34.724 17.406C34.4013 17.3774 33.9092 17.3595 33.7628 17.3709ZM33.2471 18.8713C31.1297 19.1643 29.4185 20.3774 28.4785 22.2516C28.0426 23.1209 27.8317 24.0191 27.8317 25.0074C27.8317 25.476 27.865 25.8074 27.9606 26.2938C27.9923 26.455 28.0308 26.6872 28.046 26.8098C28.075 27.0428 28.0863 27.8492 28.0662 28.2533C28.053 28.5179 28.0744 28.5776 28.214 28.6653C28.3208 28.7324 28.5332 28.7181 28.6189 28.6379C28.6525 28.6065 28.6901 28.5621 28.7024 28.5392C28.7447 28.4607 28.7705 28.1107 28.7712 27.6073C28.7719 27.0456 28.7327 26.6159 28.6384 26.1552C28.3811 24.898 28.5284 23.7191 29.0855 22.576C29.6573 21.4025 30.7017 20.4249 31.9108 19.9311C32.7365 19.594 33.6473 19.4556 34.4929 19.5388C36.7836 19.7643 38.6663 21.34 39.2828 23.5477C39.4314 24.0799 39.5991 25.1617 39.6866 26.153C39.7435 26.7969 39.7433 28.4428 39.6863 29.0733C39.642 29.5626 39.5716 30.1556 39.5197 30.4751C39.4612 30.8356 39.5682 31.0082 39.8503 31.0084C39.9832 31.0085 40.0873 30.9442 40.1493 30.8239C40.2094 30.7072 40.3464 29.6155 40.3955 28.8622C40.5055 27.1757 40.3766 25.2993 40.0435 23.737C39.7427 22.3263 38.9764 21.079 37.8653 20.1917C37.0057 19.5051 36.0132 19.0683 34.9115 18.8915C34.5687 18.8364 33.585 18.8245 33.2471 18.8713ZM29.2344 19.0518C28.9883 19.2024 28.3342 19.8597 27.9722 20.3201C26.6691 21.9777 26.1096 24.2372 26.4871 26.3172C26.6183 27.0399 26.6211 27.0663 26.622 27.5839C26.6226 27.9502 26.6114 28.1649 26.5811 28.3685C26.3875 29.6705 25.7585 30.8367 24.7818 31.7044C24.6257 31.8432 24.4885 31.9815 24.4769 32.0119C24.4415 32.105 24.4533 32.2587 24.5019 32.3385C24.5919 32.4861 24.8226 32.541 24.9668 32.4491C25.1067 32.3598 25.4976 32.0005 25.7045 31.7708C26.5505 30.8317 27.0469 29.7921 27.2611 28.5104C27.296 28.3012 27.304 28.1279 27.3031 27.5956C27.302 26.8977 27.3111 26.9877 27.1532 26.1178C27.0014 25.2812 27.0394 24.2472 27.2547 23.3578C27.5928 21.9615 28.358 20.7114 29.4663 19.7451C29.6534 19.582 29.7119 19.5163 29.7331 19.4457C29.8254 19.1373 29.5064 18.8853 29.2344 19.0518ZM23.4166 19.4443C23.3036 19.5436 22.9863 20.2095 22.7571 20.8285C22.2743 22.1325 22.0446 23.3252 22.0029 24.7457C21.9828 25.4289 22.0691 26.4792 22.2025 27.1734L22.2205 27.2672L22.2567 27.184C22.3591 26.9484 22.6401 26.8851 22.8244 27.056C22.8958 27.1223 22.8954 27.1249 22.8501 26.8881C22.8308 26.787 22.7913 26.5248 22.7624 26.3055C22.7155 25.9492 22.7099 25.8068 22.7101 24.9685C22.7104 23.9834 22.7189 23.8628 22.8409 23.1272C23.0122 22.0943 23.3381 21.0722 23.8032 20.1093C23.9664 19.7715 23.9873 19.6773 23.9272 19.5506C23.8706 19.4314 23.7708 19.3744 23.6187 19.3743C23.5163 19.3742 23.4835 19.3856 23.4166 19.4443ZM33.4388 20.3133C32.0374 20.5036 30.8512 21.2324 30.0835 22.3748C29.5812 23.1222 29.3209 23.933 29.2922 24.8395C29.2778 25.2948 29.3019 25.5869 29.3886 26.0086C29.5034 26.5667 29.5306 26.8685 29.5305 27.5839C29.5304 28.3003 29.5019 28.6243 29.3885 29.1945C29.0365 30.9655 28.1436 32.5715 26.8471 33.7656C26.7118 33.8903 26.5825 34.0254 26.56 34.0657C26.4675 34.2312 26.5442 34.4523 26.7213 34.5307C26.8738 34.5982 26.981 34.5738 27.1476 34.4337C27.3604 34.2547 27.9685 33.6225 28.1859 33.3541C29.0281 32.3145 29.6361 31.1037 29.9527 29.8357C30.1463 29.0606 30.1997 28.6508 30.2158 27.8184C30.233 26.9338 30.201 26.547 30.0445 25.7425C29.842 24.7022 30.0578 23.6676 30.6707 22.7401C30.9057 22.3844 31.3783 21.9106 31.7326 21.6754C32.4606 21.192 33.1029 20.9952 34.0067 20.9784C34.5187 20.969 34.5453 20.9623 34.6312 20.8213C34.7241 20.6689 34.6719 20.442 34.5211 20.343C34.4654 20.3065 34.3973 20.3002 34.0218 20.2969C33.7826 20.2949 33.5203 20.3022 33.4388 20.3133ZM39.7816 20.3926C39.6205 20.4506 39.5532 20.5473 39.5532 20.7208C39.5532 20.8106 39.5729 20.8556 39.6828 21.0171C40.2654 21.8732 40.6154 22.7108 40.819 23.7365C41.0502 24.9011 41.1635 25.9831 41.186 27.2437C41.2313 29.7728 40.8373 32.128 39.9721 34.4996C39.8253 34.9018 39.8252 34.9631 39.9711 35.1195C40.0944 35.2519 40.325 35.2501 40.4531 35.1158C40.5752 34.9879 41.0352 33.5982 41.2732 32.6387C41.6971 30.9293 41.88 29.4338 41.883 27.6542C41.8849 26.4961 41.8281 25.6725 41.6728 24.6049C41.4655 23.1801 41.2412 22.4041 40.7734 21.493C40.5504 21.0588 40.1648 20.4674 40.0746 20.4213C39.9704 20.368 39.8755 20.3588 39.7816 20.3926ZM35.9694 20.8781C35.895 20.9158 35.855 20.9563 35.8234 21.0258C35.7241 21.2447 35.7816 21.3664 36.0702 21.5476C36.8635 22.0459 37.4161 22.7014 37.7486 23.5388C37.8458 23.7838 37.9023 23.9941 37.9826 24.4093C38.4443 26.7992 38.3696 29.3769 37.7694 31.7693C37.4092 33.2048 36.83 34.6619 36.1046 35.9577C35.9167 36.2933 35.8879 36.3596 35.8875 36.4563C35.8865 36.7155 36.1784 36.8778 36.4048 36.7439C36.4936 36.6915 36.6704 36.4023 36.9728 35.815C38.1369 33.5539 38.7943 31.1748 38.9459 28.6746C38.9814 28.0879 38.9601 26.5062 38.91 26.0123C38.8242 25.1671 38.6874 24.2928 38.5671 23.8209C38.2661 22.6403 37.4839 21.5914 36.4332 20.9595C36.212 20.8265 36.1076 20.8082 35.9694 20.8781ZM33.4815 21.7793C33.0366 21.8497 32.5263 22.0535 32.151 22.3107C31.9036 22.4802 31.5238 22.8529 31.347 23.0995C31.0794 23.4729 30.8087 24.1171 30.803 24.3938C30.7988 24.6009 30.9362 24.7455 31.1372 24.7455C31.2537 24.7455 31.3717 24.6864 31.4272 24.6002C31.4463 24.5705 31.4791 24.4777 31.5 24.3938C31.7368 23.4462 32.4728 22.7227 33.4307 22.4958C34.7614 22.1806 36.1431 23.0182 36.4818 24.3455C36.5451 24.5935 36.6595 25.2742 36.7151 25.7345C36.7718 26.2025 36.8032 26.6318 36.8245 27.2255C36.8423 27.7244 36.8563 27.7743 37.0036 27.8669C37.063 27.9042 37.1081 27.9128 37.2068 27.9054C37.3207 27.897 37.3433 27.8857 37.4271 27.7959L37.5205 27.6957L37.5061 27.0944C37.4846 26.1926 37.369 25.1635 37.1982 24.3519C36.9154 23.0083 35.8568 21.9941 34.513 21.7791C34.2435 21.736 33.7549 21.7361 33.4815 21.7793ZM33.6221 23.2321C33.2059 23.3243 32.8294 23.5617 32.5793 23.8895C32.3307 24.2153 32.2175 24.5229 32.1993 24.9216C32.1891 25.1467 32.1968 25.2245 32.2597 25.5314C32.3845 26.1408 32.4291 26.5828 32.4434 27.3515C32.4611 28.3026 32.4098 28.9466 32.2519 29.7548C32.1927 30.0575 32.1959 30.1299 32.2736 30.2485C32.369 30.3943 32.6463 30.4195 32.777 30.2942C32.8652 30.2096 32.8841 30.158 32.9405 29.8474C33.103 28.9526 33.1403 28.5398 33.1409 27.6308C33.1415 26.7006 33.0941 26.1819 32.9288 25.3105C32.8755 25.0298 32.872 24.9785 32.8959 24.8367C32.9347 24.6067 33.0529 24.3769 33.2165 24.2138C33.3812 24.0495 33.5643 23.9557 33.8178 23.9057C33.9888 23.872 34.0213 23.8721 34.1853 23.906C34.4369 23.958 34.6163 24.0519 34.7845 24.2195C34.9677 24.4021 35.0424 24.5579 35.1118 24.9021C35.3666 26.1669 35.4353 27.7002 35.297 29.0381C35.0301 31.6194 34.071 34.0693 32.5114 36.1536C32.2945 36.4436 32.2859 36.4596 32.286 36.5758C32.2861 36.7186 32.3446 36.8297 32.4478 36.8831C32.5389 36.9303 32.7186 36.9296 32.7995 36.8818C32.8345 36.8611 32.9743 36.6948 33.1102 36.5124C34.5725 34.5483 35.5304 32.25 35.8978 29.8239C36.0855 28.5847 36.1104 27.1302 35.965 25.9004C35.9025 25.3721 35.8113 24.7982 35.7535 24.5697C35.6553 24.1816 35.4282 23.8268 35.1263 23.5894C34.9559 23.4556 34.6726 23.3101 34.4778 23.2564C34.2812 23.2023 33.8161 23.1891 33.6221 23.2321ZM33.8908 24.6768C33.7946 24.7048 33.6928 24.816 33.6698 24.9183C33.6578 24.9716 33.6628 25.065 33.6837 25.1731C33.9581 26.5984 33.9888 28.1173 33.7721 29.5542C33.4312 31.8155 32.4122 34.0521 30.9227 35.809C30.6951 36.0775 30.6451 36.1592 30.645 36.2627C30.6449 36.4425 30.7752 36.5877 30.9548 36.608C31.1344 36.6282 31.1827 36.5904 31.5614 36.1329C33.1033 34.2701 34.1317 31.9403 34.4757 29.5307C34.5657 28.8998 34.5857 28.637 34.6 27.8977C34.6183 26.9512 34.5609 26.1768 34.4066 25.2876C34.3321 24.8581 34.2939 24.7686 34.1568 24.7022C34.0454 24.6483 34.0028 24.6442 33.8908 24.6768ZM25.1128 25.0448C25.068 25.0673 25.0061 25.1227 24.9754 25.1679C24.9217 25.2468 24.9201 25.2612 24.9338 25.5432C24.952 25.92 25.0011 26.3019 25.0937 26.7863C25.1596 27.1308 25.1677 27.2198 25.1679 27.5956C25.1681 27.9319 25.1577 28.0739 25.1167 28.2932C24.9529 29.1689 24.5205 29.9626 23.886 30.5521C23.7804 30.6502 23.6812 30.7535 23.6656 30.7815C23.6499 30.8096 23.6368 30.8875 23.6363 30.9547C23.6356 31.0644 23.6445 31.0863 23.7236 31.1695C23.7832 31.2323 23.8408 31.2677 23.9017 31.2791C24.0692 31.3106 24.151 31.2641 24.4521 30.9666C25.5951 29.8371 26.0781 28.2594 25.7702 26.6619C25.69 26.2457 25.6395 25.8647 25.6147 25.489C25.596 25.2032 25.5601 25.1229 25.4175 25.0471C25.3152 24.9927 25.2178 24.992 25.1128 25.0448ZM31.0911 25.9361C30.982 25.9911 30.9167 26.1092 30.9201 26.2449C30.9216 26.304 30.9394 26.5204 30.9597 26.7256C31.0067 27.2019 31.007 27.9801 30.9603 28.4767C30.7856 30.334 30.1274 32.0422 29.0129 33.531C28.7356 33.9013 28.5077 34.1636 28.1361 34.54C27.957 34.7214 27.7995 34.8988 27.786 34.9344C27.7281 35.0868 27.7827 35.246 27.9305 35.3555C28.0082 35.4131 28.166 35.4177 28.2654 35.3652C28.3514 35.3198 28.9111 34.7571 29.1574 34.4683C30.3891 33.0243 31.2297 31.2243 31.5469 29.3511C31.6715 28.6157 31.7192 27.8068 31.6794 27.1045C31.6403 26.4123 31.602 26.1289 31.5353 26.0351C31.4394 25.9005 31.2468 25.8575 31.0911 25.9361ZM42.8223 25.9267C42.783 25.9446 42.7231 25.9921 42.6892 26.0324L42.6276 26.1057L42.6407 27.1908C42.6541 28.2862 42.6391 28.754 42.5643 29.5776C42.4701 30.6139 42.2896 31.6849 42.0346 32.7197C41.9576 33.0323 41.9207 33.2265 41.9289 33.277C41.9542 33.4329 42.1075 33.5652 42.2628 33.5652C42.3591 33.5652 42.5141 33.4819 42.5589 33.4061C42.6137 33.3132 42.7888 32.6014 42.9271 31.9096C43.2708 30.189 43.41 28.3532 43.326 26.6456C43.2994 26.1039 43.2874 26.0542 43.1602 25.9594C43.0815 25.9006 42.9152 25.8846 42.8223 25.9267ZM22.8953 27.45C22.7853 27.6784 22.52 27.7257 22.3256 27.5516C22.2716 27.5032 22.2703 27.5031 22.2824 27.5487C22.2893 27.5745 22.3132 27.6748 22.3356 27.7715C22.3831 27.9767 22.4319 28.0562 22.5426 28.1087C22.7022 28.1845 22.8922 28.1349 22.9787 27.995C23.0374 27.8999 23.0388 27.751 22.9833 27.5206L22.9426 27.3518L22.8953 27.45ZM36.9539 29.0931C36.853 29.1306 36.771 29.2258 36.7436 29.3376C36.7318 29.3858 36.7042 29.5624 36.6822 29.7301C36.3851 31.9994 35.4782 34.3852 34.1767 36.3213C34.0497 36.5103 34.0347 36.5451 34.0336 36.6538C34.0323 36.7846 34.0745 36.8641 34.192 36.9518C34.2781 37.0161 34.4662 37.0161 34.5541 36.9517C34.7908 36.7785 35.7075 35.1725 36.159 34.1399C36.7117 32.8761 37.1216 31.4584 37.3358 30.0702C37.4305 29.4562 37.4347 29.3703 37.3757 29.2545C37.2991 29.1044 37.1142 29.0336 36.9539 29.0931ZM27.79 29.9216C27.6955 29.9681 27.6492 30.0343 27.5627 30.2461C27.1781 31.1872 26.5492 32.0753 25.7737 32.7725C25.6153 32.915 25.4702 33.0613 25.4514 33.0978C25.3399 33.3135 25.5113 33.5885 25.757 33.5884C25.8805 33.5884 25.9678 33.5324 26.2782 33.2537C26.9683 32.6341 27.5645 31.8388 28.0004 30.9562C28.2935 30.3626 28.3377 30.1693 28.2138 30.0219C28.1014 29.8883 27.9366 29.8493 27.79 29.9216ZM31.8756 31.5107C31.7646 31.5601 31.7154 31.634 31.5926 31.935C31.1077 33.1245 30.2792 34.4103 29.4011 35.3361C29.1676 35.5823 29.1445 35.6192 29.1446 35.746C29.1449 36.0036 29.4136 36.1788 29.6339 36.0648C29.7694 35.9947 30.387 35.2959 30.7744 34.7743C31.0304 34.4296 31.3028 34.0175 31.5118 33.659C31.8772 33.032 32.3562 31.9923 32.3562 31.8262C32.3562 31.703 32.2844 31.5902 32.1678 31.5304C32.0512 31.4706 31.9772 31.4656 31.8756 31.5107ZM39.348 32.1498C39.2478 32.1712 39.1402 32.3011 39.0985 32.451C38.8109 33.4829 38.4533 34.4679 38.0593 35.3127C37.8346 35.7945 37.8153 35.8552 37.8466 35.9788C37.889 36.1458 38.0879 36.2708 38.2475 36.2307C38.3992 36.1926 38.4573 36.1193 38.6317 35.746C39.0414 34.8692 39.441 33.8007 39.6931 32.9084C39.799 32.5334 39.8085 32.4152 39.7418 32.3057C39.6625 32.1756 39.5099 32.1152 39.348 32.1498Z" fill="black"/>
<defs>
<filter id="filter0_d_1445_18567" x="0" y="0" width="68" height="50" filterUnits="userSpaceOnUse" color-interpolation-filters="sRGB">
<feFlood flood-opacity="0" result="BackgroundImageFix"/>
<feColorMatrix in="SourceAlpha" type="matrix" values="0 0 0 0 0 0 0 0 0 0 0 0 0 0 0 0 0 0 127 0" result="hardAlpha"/>
<feOffset/>
<feGaussianBlur stdDeviation="0.5"/>
<feComposite in2="hardAlpha" operator="out"/>
<feColorMatrix type="matrix" values="0 0 0 0 0 0 0 0 0 0 0 0 0 0 0 0 0 0 0.25 0"/>
<feBlend mode="normal" in2="BackgroundImageFix" result="effect1_dropShadow_1445_18567"/>
<feBlend mode="normal" in="SourceGraphic" in2="effect1_dropShadow_1445_18567" result="shape"/>
</filter>
</defs>
</svg>
