<svg width="20" height="20" viewBox="0 0 20 20" fill="none" xmlns="http://www.w3.org/2000/svg">
<path d="M10 18.9596C9.65833 18.9596 9.375 18.6763 9.375 18.3346V16.668C9.375 16.3263 9.65833 16.043 10 16.043C10.3417 16.043 10.625 16.3263 10.625 16.668V18.3346C10.625 18.6763 10.3417 18.9596 10 18.9596Z" fill="#333333"/>
<path d="M10 15.6237C9.65833 15.6237 9.375 15.3404 9.375 14.9987V13.332C9.375 12.9904 9.65833 12.707 10 12.707C10.3417 12.707 10.625 12.9904 10.625 13.332V14.9987C10.625 15.3404 10.3417 15.6237 10 15.6237Z" fill="#333333"/>
<path d="M10 12.2904C9.65833 12.2904 9.375 12.007 9.375 11.6654V9.16536C9.375 5.60703 12.275 2.70703 15.8333 2.70703H18.3333C18.675 2.70703 18.9583 2.99036 18.9583 3.33203C18.9583 3.6737 18.675 3.95703 18.3333 3.95703H15.8333C12.9583 3.95703 10.625 6.29036 10.625 9.16536V11.6654C10.625 12.007 10.3417 12.2904 10 12.2904Z" fill="#333333"/>
<path d="M9.99935 12.2904C9.65768 12.2904 9.37435 12.007 9.37435 11.6654V9.16536C9.37435 6.29036 7.04102 3.95703 4.16602 3.95703H1.66602C1.32435 3.95703 1.04102 3.6737 1.04102 3.33203C1.04102 2.99036 1.32435 2.70703 1.66602 2.70703H4.16602C7.72435 2.70703 10.6243 5.60703 10.6243 9.16536V11.6654C10.6243 12.007 10.341 12.2904 9.99935 12.2904Z" fill="#333333"/>
<path d="M3.33255 5.62422C3.17422 5.62422 3.01589 5.56589 2.89089 5.44089L1.22422 3.77422C0.982552 3.53255 0.982552 3.13255 1.22422 2.89089L2.89089 1.22422C3.13255 0.982552 3.53255 0.982552 3.77422 1.22422C4.01589 1.46589 4.01589 1.86589 3.77422 2.10755L2.54922 3.33255L3.77422 4.55755C4.01589 4.79922 4.01589 5.19922 3.77422 5.44089C3.64922 5.56589 3.49089 5.62422 3.33255 5.62422Z" fill="#333333"/>
<path d="M16.6659 5.62422C16.5076 5.62422 16.3492 5.56589 16.2242 5.44089C15.9826 5.19922 15.9826 4.79922 16.2242 4.55755L17.4492 3.33255L16.2242 2.10755C15.9826 1.86589 15.9826 1.46589 16.2242 1.22422C16.4659 0.982552 16.8659 0.982552 17.1076 1.22422L18.7742 2.89089C19.0159 3.13255 19.0159 3.53255 18.7742 3.77422L17.1076 5.44089C16.9826 5.56589 16.8242 5.62422 16.6659 5.62422Z" fill="#333333"/>
</svg>
