<svg width="76" height="75" viewBox="0 0 76 75" fill="none" xmlns="http://www.w3.org/2000/svg">
<g clip-path="url(#clip0_2613_54066)">
<path fill-rule="evenodd" clip-rule="evenodd" d="M38 4.88246C56.014 4.88246 70.6168 19.4853 70.6168 37.4993C70.6168 55.5133 56.014 70.1161 38 70.1161C19.986 70.1161 5.38246 55.514 5.38246 37.5C5.38246 19.486 19.986 4.88246 38 4.88246ZM38 0C58.7107 0 75.5 16.7893 75.5 37.5C75.5 58.2107 58.7107 75 38 75C17.2893 75 0.5 58.2107 0.5 37.5C0.5 16.7893 17.2893 0 38 0Z" fill="#21AA47"/>
<path d="M26.8773 34.7418L22.6592 39.2227L33.9859 49.8852L38.204 45.4044L26.8773 34.7418Z" fill="#21AA47"/>
<path d="M48.8584 25.1089L29.5049 45.668L33.9858 49.8861L53.3393 29.3271L48.8584 25.1089Z" fill="#21AA47"/>
</g>
<defs>
<clipPath id="clip0_2613_54066">
<rect width="75" height="75" fill="white" transform="translate(0.5)"/>
</clipPath>
</defs>
</svg>
