<svg width="20" height="20" viewBox="0 0 20 20" fill="none" xmlns="http://www.w3.org/2000/svg">
<path d="M18.3337 17.707C18.3337 18.0487 18.0503 18.332 17.7087 18.332H2.29199C1.95033 18.332 1.66699 18.0487 1.66699 17.707C1.66699 17.3654 1.95033 17.082 2.29199 17.082H17.7087C18.0503 17.082 18.3337 17.3654 18.3337 17.707Z" fill="#333333"/>
<path d="M12.8245 3.76745L3.87454 12.7174C3.53288 13.0591 2.98288 13.0591 2.64954 12.7174H2.64121C1.48288 11.5508 1.48288 9.66745 2.64121 8.50911L8.59954 2.55078C9.76621 1.38411 11.6495 1.38411 12.8162 2.55078C13.1579 2.87578 13.1579 3.43411 12.8245 3.76745Z" fill="#333333"/>
<path d="M17.3499 7.07526L14.8082 4.53359C14.4665 4.19193 13.9165 4.19193 13.5832 4.53359L4.6332 13.4836C4.29154 13.8169 4.29154 14.3669 4.6332 14.7086L7.17487 17.2586C8.34154 18.4169 10.2249 18.4169 11.3915 17.2586L17.3415 11.3003C18.5249 10.1336 18.5249 8.24193 17.3499 7.07526ZM10.6332 14.6003L9.62487 15.6169C9.41654 15.8253 9.07487 15.8253 8.8582 15.6169C8.64987 15.4086 8.64987 15.0669 8.8582 14.8503L9.87487 13.8336C10.0749 13.6336 10.4249 13.6336 10.6332 13.8336C10.8415 14.0419 10.8415 14.4003 10.6332 14.6003ZM13.9415 11.2919L11.9082 13.3336C11.6999 13.5336 11.3582 13.5336 11.1415 13.3336C10.9332 13.1253 10.9332 12.7836 11.1415 12.5669L13.1832 10.5253C13.3832 10.3253 13.7332 10.3253 13.9415 10.5253C14.1499 10.7419 14.1499 11.0836 13.9415 11.2919Z" fill="#333333"/>
</svg>
