<svg width="177" height="132" viewBox="0 0 177 132" fill="none" xmlns="http://www.w3.org/2000/svg">
<g filter="url(#filter0_d_2978_46410)">
<rect x="20" y="10" width="137" height="92" rx="4" fill="white"/>
<rect x="20.25" y="10.25" width="136.5" height="91.5" rx="3.75" stroke="#F4B315" stroke-width="0.5" stroke-dasharray="1 1"/>
</g>
<path d="M70.032 82V73.54H72.9C73.844 73.54 74.64 73.704 75.288 74.032C75.944 74.36 76.44 74.84 76.776 75.472C77.112 76.096 77.28 76.86 77.28 77.764C77.28 78.668 77.112 79.436 76.776 80.068C76.44 80.7 75.944 81.18 75.288 81.508C74.64 81.836 73.844 82 72.9 82H70.032ZM71.148 81.052H72.816C73.944 81.052 74.78 80.78 75.324 80.236C75.868 79.692 76.14 78.868 76.14 77.764C76.14 76.66 75.868 75.84 75.324 75.304C74.78 74.76 73.944 74.488 72.816 74.488H71.148V81.052ZM78.912 82V75.964H80.004V82H78.912ZM78.816 74.644V73.468H80.112V74.644H78.816ZM81.83 82V77.392C81.83 77.16 81.822 76.924 81.806 76.684C81.79 76.444 81.766 76.204 81.734 75.964H82.79L82.91 77.26H82.766C82.95 76.804 83.234 76.456 83.618 76.216C84.002 75.976 84.45 75.856 84.962 75.856C85.674 75.856 86.21 76.052 86.57 76.444C86.93 76.828 87.11 77.428 87.11 78.244V82H86.018V78.304C86.018 77.752 85.91 77.356 85.694 77.116C85.478 76.868 85.142 76.744 84.686 76.744C84.142 76.744 83.71 76.908 83.39 77.236C83.078 77.564 82.922 78.008 82.922 78.568V82H81.83ZM91.6444 82.108C90.6844 82.108 89.9244 81.832 89.3644 81.28C88.8124 80.728 88.5364 79.968 88.5364 79C88.5364 78.36 88.6564 77.808 88.8964 77.344C89.1444 76.872 89.4844 76.508 89.9164 76.252C90.3484 75.988 90.8524 75.856 91.4284 75.856C91.9804 75.856 92.4484 75.976 92.8324 76.216C93.2164 76.448 93.5084 76.78 93.7084 77.212C93.9084 77.644 94.0084 78.156 94.0084 78.748V79.108H89.3884V78.46H93.2644L93.0604 78.616C93.0604 77.992 92.9204 77.508 92.6404 77.164C92.3684 76.82 91.9644 76.648 91.4284 76.648C90.8444 76.648 90.3924 76.852 90.0724 77.26C89.7524 77.66 89.5924 78.208 89.5924 78.904V79.012C89.5924 79.748 89.7724 80.304 90.1324 80.68C90.5004 81.056 91.0084 81.244 91.6564 81.244C92.0164 81.244 92.3524 81.192 92.6644 81.088C92.9764 80.984 93.2764 80.812 93.5644 80.572L93.9244 81.328C93.6524 81.576 93.3124 81.768 92.9044 81.904C92.5044 82.04 92.0844 82.108 91.6444 82.108ZM98.5995 82V75.964H99.6915V82H98.5995ZM98.5035 74.644V73.468H99.7995V74.644H98.5035ZM101.517 82V77.392C101.517 77.16 101.509 76.924 101.493 76.684C101.477 76.444 101.453 76.204 101.421 75.964H102.477L102.597 77.26H102.453C102.637 76.804 102.921 76.456 103.305 76.216C103.689 75.976 104.137 75.856 104.649 75.856C105.361 75.856 105.897 76.052 106.257 76.444C106.617 76.828 106.797 77.428 106.797 78.244V82H105.705V78.304C105.705 77.752 105.597 77.356 105.381 77.116C105.165 76.868 104.829 76.744 104.373 76.744C103.829 76.744 103.397 76.908 103.077 77.236C102.765 77.564 102.609 78.008 102.609 78.568V82H101.517Z" fill="#F4B315"/>
<path fill-rule="evenodd" clip-rule="evenodd" d="M88.0065 30C96.8401 30 103.999 37.1593 103.999 46.0067C103.999 52.0403 100.651 57.3083 95.7144 60.0362L95.6856 59.43V59.3867C95.6568 58.6505 95.6423 57.9434 95.6278 57.2939C95.57 55.2298 95.4979 52.9638 95.5845 50.8997C95.6278 49.9327 96.1187 49.6584 96.8836 48.9943C97.6343 48.3448 97.8939 47.984 98.0237 46.9591C98.1682 45.9055 98.0382 45.0394 97.9371 44.0147C97.8505 43.0332 97.7784 42.0373 97.6918 41.0703C97.5331 39.1507 97.2876 37.0722 97.2155 35.1527H96.7537C96.7825 38.3136 96.7249 41.4892 96.7537 44.6503C96.7537 45.1266 96.797 45.603 96.2918 45.603C95.7867 45.6175 95.83 45.1699 95.83 44.7081C95.8445 41.5615 95.7722 38.2853 95.83 35.1677L95.3249 35.1389V44.8382C95.3394 45.4444 95.2961 45.6465 94.632 45.5889C94.3144 45.1413 94.401 45.1846 94.401 44.5208V35.1535L93.9102 35.139V43.5252C93.9102 44.1602 94.1845 46.0222 93.2173 45.5459C92.8997 45.3872 93.0008 44.9252 93.0008 44.4633V35.1389L92.4957 35.1534C92.3946 37.1596 91.4854 45.3293 91.673 46.9024C91.7163 47.3354 91.8174 47.7684 92.0049 48.1149C92.1781 48.4325 93.3182 49.4573 93.6214 49.6881C94.4008 50.2798 94.141 52.8202 94.141 53.9749C94.1265 55.5626 94.0977 57.54 94.0256 59.6619L93.9823 60.8453C92.1348 61.596 90.1141 62 88.0069 62C86.6212 62 85.2646 61.8268 83.9942 61.4949L83.9364 60.4989V60.4556C83.821 57.8431 83.792 55.4615 83.7777 53.8448C83.7777 52.6756 83.7489 51.4488 83.7922 50.2796C83.85 48.6774 86.0295 49.0817 87.3719 46.729C87.8628 45.8629 88.0936 44.9681 88.0502 43.8422C87.9782 41.7636 86.9967 38.7326 85.8418 37.1594C85.4233 36.5964 84.6438 35.6583 84.0231 35.3552C83.5613 35.1387 83.0271 35.0808 82.5075 35.1965C81.4539 35.4275 80.9631 36.0625 80.458 36.7554C79.9817 37.4337 79.5343 38.1411 79.1446 39.0071C78.0333 41.5042 77.0951 44.9539 79.0292 47.3499C79.6643 48.1294 80.0973 48.3459 81.0788 48.8655C81.454 49.0675 81.887 49.3706 82.0602 49.6304C82.3634 50.078 82.248 50.6985 82.2622 51.2902C82.3201 53.5563 82.2622 56.7462 82.1323 59.9073L82.1178 60.0227V60.1814L82.089 60.8309V60.8742C76.1714 58.5216 72 52.748 72 46.0075C72 37.1596 79.1592 30 88.0065 30Z" fill="#F4B315"/>
<defs>
<filter id="filter0_d_2978_46410" x="0" y="0" width="177" height="132" filterUnits="userSpaceOnUse" color-interpolation-filters="sRGB">
<feFlood flood-opacity="0" result="BackgroundImageFix"/>
<feColorMatrix in="SourceAlpha" type="matrix" values="0 0 0 0 0 0 0 0 0 0 0 0 0 0 0 0 0 0 127 0" result="hardAlpha"/>
<feOffset dy="10"/>
<feGaussianBlur stdDeviation="10"/>
<feColorMatrix type="matrix" values="0 0 0 0 0.0823529 0 0 0 0 0.0352941 0 0 0 0 0.121569 0 0 0 0.1 0"/>
<feBlend mode="normal" in2="BackgroundImageFix" result="effect1_dropShadow_2978_46410"/>
<feBlend mode="normal" in="SourceGraphic" in2="effect1_dropShadow_2978_46410" result="shape"/>
</filter>
</defs>
</svg>
