<svg width="137" height="92" viewBox="0 0 137 92" fill="none" xmlns="http://www.w3.org/2000/svg">
<rect x="0.25" y="0.25" width="136.5" height="91.5" rx="3.75" fill="#FAFAFA" stroke="#CCCCCC" stroke-width="0.5" stroke-dasharray="1 1"/>
<path d="M50.032 72V63.54H52.9C53.844 63.54 54.64 63.704 55.288 64.032C55.944 64.36 56.44 64.84 56.776 65.472C57.112 66.096 57.28 66.86 57.28 67.764C57.28 68.668 57.112 69.436 56.776 70.068C56.44 70.7 55.944 71.18 55.288 71.508C54.64 71.836 53.844 72 52.9 72H50.032ZM51.148 71.052H52.816C53.944 71.052 54.78 70.78 55.324 70.236C55.868 69.692 56.14 68.868 56.14 67.764C56.14 66.66 55.868 65.84 55.324 65.304C54.78 64.76 53.944 64.488 52.816 64.488H51.148V71.052ZM58.912 72V65.964H60.004V72H58.912ZM58.816 64.644V63.468H60.112V64.644H58.816ZM61.83 72V67.392C61.83 67.16 61.822 66.924 61.806 66.684C61.79 66.444 61.766 66.204 61.734 65.964H62.79L62.91 67.26H62.766C62.95 66.804 63.234 66.456 63.618 66.216C64.002 65.976 64.45 65.856 64.962 65.856C65.674 65.856 66.21 66.052 66.57 66.444C66.93 66.828 67.11 67.428 67.11 68.244V72H66.018V68.304C66.018 67.752 65.91 67.356 65.694 67.116C65.478 66.868 65.142 66.744 64.686 66.744C64.142 66.744 63.71 66.908 63.39 67.236C63.078 67.564 62.922 68.008 62.922 68.568V72H61.83ZM71.6444 72.108C70.6844 72.108 69.9244 71.832 69.3644 71.28C68.8124 70.728 68.5364 69.968 68.5364 69C68.5364 68.36 68.6564 67.808 68.8964 67.344C69.1444 66.872 69.4844 66.508 69.9164 66.252C70.3484 65.988 70.8524 65.856 71.4284 65.856C71.9804 65.856 72.4484 65.976 72.8324 66.216C73.2164 66.448 73.5084 66.78 73.7084 67.212C73.9084 67.644 74.0084 68.156 74.0084 68.748V69.108H69.3884V68.46H73.2644L73.0604 68.616C73.0604 67.992 72.9204 67.508 72.6404 67.164C72.3684 66.82 71.9644 66.648 71.4284 66.648C70.8444 66.648 70.3924 66.852 70.0724 67.26C69.7524 67.66 69.5924 68.208 69.5924 68.904V69.012C69.5924 69.748 69.7724 70.304 70.1324 70.68C70.5004 71.056 71.0084 71.244 71.6564 71.244C72.0164 71.244 72.3524 71.192 72.6644 71.088C72.9764 70.984 73.2764 70.812 73.5644 70.572L73.9244 71.328C73.6524 71.576 73.3124 71.768 72.9044 71.904C72.5044 72.04 72.0844 72.108 71.6444 72.108ZM78.5995 72V65.964H79.6915V72H78.5995ZM78.5035 64.644V63.468H79.7995V64.644H78.5035ZM81.5175 72V67.392C81.5175 67.16 81.5095 66.924 81.4935 66.684C81.4775 66.444 81.4535 66.204 81.4215 65.964H82.4775L82.5975 67.26H82.4535C82.6375 66.804 82.9215 66.456 83.3055 66.216C83.6895 65.976 84.1375 65.856 84.6495 65.856C85.3615 65.856 85.8975 66.052 86.2575 66.444C86.6175 66.828 86.7975 67.428 86.7975 68.244V72H85.7055V68.304C85.7055 67.752 85.5975 67.356 85.3815 67.116C85.1655 66.868 84.8295 66.744 84.3735 66.744C83.8295 66.744 83.3975 66.908 83.0775 67.236C82.7655 67.564 82.6095 68.008 82.6095 68.568V72H81.5175Z" fill="#999999"/>
<path fill-rule="evenodd" clip-rule="evenodd" d="M68.0065 20C76.8401 20 83.9995 27.1593 83.9995 36.0067C83.9995 42.0403 80.6508 47.3083 75.7144 50.0362L75.6856 49.43V49.3867C75.6568 48.6505 75.6423 47.9434 75.6278 47.2939C75.57 45.2298 75.4979 42.9638 75.5845 40.8997C75.6278 39.9327 76.1187 39.6584 76.8836 38.9943C77.6343 38.3448 77.8939 37.984 78.0237 36.9591C78.1682 35.9055 78.0382 35.0394 77.9371 34.0147C77.8505 33.0332 77.7784 32.0373 77.6918 31.0703C77.5331 29.1507 77.2876 27.0722 77.2155 25.1527H76.7537C76.7825 28.3136 76.7249 31.4892 76.7537 34.6503C76.7537 35.1266 76.797 35.603 76.2918 35.603C75.7867 35.6175 75.83 35.1699 75.83 34.7081C75.8445 31.5615 75.7722 28.2853 75.83 25.1677L75.3249 25.1389V34.8382C75.3394 35.4444 75.2961 35.6465 74.632 35.5889C74.3144 35.1413 74.401 35.1846 74.401 34.5208V25.1535L73.9102 25.139V33.5252C73.9102 34.1602 74.1845 36.0222 73.2173 35.5459C72.8997 35.3872 73.0008 34.9252 73.0008 34.4633V25.1389L72.4957 25.1534C72.3946 27.1596 71.4854 35.3293 71.673 36.9024C71.7163 37.3354 71.8174 37.7684 72.0049 38.1149C72.1781 38.4325 73.3182 39.4573 73.6214 39.6881C74.4008 40.2798 74.141 42.8202 74.141 43.9749C74.1265 45.5626 74.0977 47.54 74.0256 49.6619L73.9823 50.8453C72.1348 51.596 70.1141 52 68.0069 52C66.6212 52 65.2646 51.8268 63.9942 51.4949L63.9364 50.4989V50.4556C63.821 47.8431 63.792 45.4615 63.7777 43.8448C63.7777 42.6756 63.7489 41.4488 63.7922 40.2796C63.85 38.6774 66.0295 39.0817 67.3719 36.729C67.8628 35.8629 68.0936 34.9681 68.0502 33.8422C67.9782 31.7636 66.9967 28.7326 65.8418 27.1594C65.4233 26.5964 64.6438 25.6583 64.0231 25.3552C63.5613 25.1387 63.0271 25.0808 62.5075 25.1965C61.4539 25.4275 60.9631 26.0625 60.458 26.7554C59.9817 27.4337 59.5343 28.1411 59.1446 29.0071C58.0333 31.5042 57.0951 34.9539 59.0292 37.3499C59.6643 38.1294 60.0973 38.3459 61.0788 38.8655C61.454 39.0675 61.887 39.3706 62.0602 39.6304C62.3634 40.078 62.248 40.6985 62.2622 41.2902C62.3201 43.5563 62.2622 46.7462 62.1323 49.9073L62.1178 50.0227V50.1814L62.089 50.8309V50.8742C56.1714 48.5216 52 42.748 52 36.0075C52 27.1596 59.1592 20 68.0065 20Z" fill="#999999"/>
</svg>
