<svg width="29" height="24" viewBox="0 0 29 24" fill="none" xmlns="http://www.w3.org/2000/svg">
<path d="M22.1154 5.91055L23.4932 9.13604L27.0072 9.45014C27.1876 9.47166 27.3454 9.56235 27.455 9.6925C27.5652 9.82367 27.6267 9.99481 27.6154 10.1762L27.6118 10.2197C27.6016 10.3017 27.5775 10.3791 27.5421 10.4493L27.5257 10.4785C27.4955 10.5313 27.4581 10.58 27.4156 10.6225L24.7368 12.9636L25.5187 16.3848C25.5617 16.5703 25.5243 16.7573 25.4301 16.9069C25.3363 17.0555 25.1841 17.1703 24.9981 17.2123C24.9064 17.2328 24.8126 17.2344 24.7235 17.2185C24.6369 17.2031 24.5544 17.1708 24.4806 17.1247L21.479 15.3308L20.0782 16.1681L19.8922 15.3682L21.2761 14.5407C21.3369 14.5038 21.4066 14.4841 21.4778 14.4838C21.5489 14.4836 21.6188 14.5027 21.6799 14.5392L24.7076 16.3489L23.9216 12.9108C23.8914 12.7745 23.9334 12.627 24.0456 12.5286L26.7023 10.209L23.213 9.8954C23.1382 9.89329 23.0656 9.86977 23.0039 9.82762C22.9421 9.78548 22.8937 9.72648 22.8645 9.65765L21.479 6.41423L20.5598 8.56729L19.739 8.4935L20.8431 5.9085C20.9174 5.73326 21.0563 5.60465 21.2203 5.53855C21.3847 5.47194 21.5743 5.46887 21.7501 5.54368L21.7803 5.55803C21.852 5.59236 21.9156 5.63847 21.9678 5.69125C22.0309 5.75222 22.0801 5.82805 22.1154 5.91055ZM14.8528 5.23522L16.7297 9.6305L21.4908 10.0578C21.7009 10.0758 21.8567 10.2607 21.8382 10.4708C21.8295 10.5733 21.7808 10.6624 21.7091 10.725L18.1075 13.87L19.1728 18.5322C19.2204 18.7377 19.0913 18.9432 18.8853 18.9903C18.7803 19.0144 18.6747 18.9924 18.5907 18.9375L14.4998 16.4914L10.3955 18.9452C10.2147 19.0533 9.98049 18.9944 9.87187 18.813C9.82097 18.7288 9.80497 18.6281 9.82729 18.5322L9.82678 18.5317L10.8925 13.87L7.29045 10.725C7.25264 10.692 7.22171 10.6518 7.19944 10.6069C7.17717 10.5619 7.16399 10.513 7.16066 10.4629C7.15733 10.4128 7.16391 10.3626 7.18003 10.315C7.19614 10.2675 7.22148 10.2236 7.25458 10.1859C7.28817 10.1476 7.32909 10.1164 7.37494 10.0941C7.42079 10.0718 7.47064 10.059 7.52154 10.0563L12.2698 9.6305L14.1478 5.23317C14.2308 5.03846 14.4552 4.94777 14.6494 5.03078C14.7452 5.07126 14.8159 5.14658 14.8528 5.23522ZM7.52051 6.41423L6.13501 9.65765C6.10585 9.72652 6.0575 9.78555 5.99572 9.82771C5.93394 9.86986 5.86135 9.89336 5.78658 9.8954L2.29721 10.209L4.95395 12.5286C5.00718 12.5752 5.04681 12.6353 5.06864 12.7026C5.09047 12.7699 5.09368 12.8418 5.07795 12.9108L4.29246 16.3489L7.31965 14.5392C7.44826 14.4623 7.60301 14.468 7.72342 14.5407L9.10943 15.3693L8.92651 16.1712L7.52051 15.3308L4.51893 17.1252C4.44515 17.1708 4.36265 17.2031 4.27606 17.2185C4.1869 17.2344 4.09314 17.2328 4.00193 17.2123C3.81491 17.1703 3.66324 17.0555 3.56947 16.9069C3.47571 16.7568 3.4383 16.5703 3.48083 16.3848L4.26274 12.9636L1.58397 10.6225C1.54144 10.58 1.50403 10.5313 1.4738 10.4785L1.45792 10.4493C1.42205 10.3791 1.39797 10.3017 1.38772 10.2197L1.38413 10.1777C1.37286 9.99532 1.43435 9.82418 1.54451 9.6925C1.65416 9.56184 1.81198 9.47166 1.99285 9.45014L5.50631 9.13604L6.88412 5.91055C6.91948 5.82805 6.96918 5.75222 7.03067 5.69073C7.08395 5.63847 7.14698 5.59287 7.21871 5.55854L7.24997 5.54368C7.42469 5.46887 7.61479 5.47194 7.77927 5.53804C7.94323 5.60465 8.08209 5.73326 8.15639 5.9085L9.26007 8.49248L8.44025 8.56626L7.52051 6.41423Z" fill="#CCCCCC"/>
</svg>
