<svg width="16" height="16" viewBox="0 0 16 16" fill="none" xmlns="http://www.w3.org/2000/svg">
<path d="M14.6667 6.4987C14.3933 6.4987 14.1667 6.27203 14.1667 5.9987V4.66536C14.1667 2.94536 13.0533 1.83203 11.3333 1.83203H10C9.72667 1.83203 9.5 1.60536 9.5 1.33203C9.5 1.0587 9.72667 0.832031 10 0.832031H11.3333C13.6267 0.832031 15.1667 2.37203 15.1667 4.66536V5.9987C15.1667 6.27203 14.94 6.4987 14.6667 6.4987Z" fill="#D9D9D9"/>
<path d="M1.33398 6.4987C1.06065 6.4987 0.833984 6.27203 0.833984 5.9987V4.66536C0.833984 2.37203 2.37398 0.832031 4.66732 0.832031H6.00065C6.27398 0.832031 6.50065 1.0587 6.50065 1.33203C6.50065 1.60536 6.27398 1.83203 6.00065 1.83203H4.66732C2.94732 1.83203 1.83398 2.94536 1.83398 4.66536V5.9987C1.83398 6.27203 1.60732 6.4987 1.33398 6.4987Z" fill="#D9D9D9"/>
<path d="M11.3333 15.1667H10C9.72667 15.1667 9.5 14.94 9.5 14.6667C9.5 14.3933 9.72667 14.1667 10 14.1667H11.3333C13.0533 14.1667 14.1667 13.0533 14.1667 11.3333V10C14.1667 9.72667 14.3933 9.5 14.6667 9.5C14.94 9.5 15.1667 9.72667 15.1667 10V11.3333C15.1667 13.6267 13.6267 15.1667 11.3333 15.1667Z" fill="#D9D9D9"/>
<path d="M6.00065 15.1667H4.66732C2.37398 15.1667 0.833984 13.6267 0.833984 11.3333V10C0.833984 9.72667 1.06065 9.5 1.33398 9.5C1.60732 9.5 1.83398 9.72667 1.83398 10V11.3333C1.83398 13.0533 2.94732 14.1667 4.66732 14.1667H6.00065C6.27398 14.1667 6.50065 14.3933 6.50065 14.6667C6.50065 14.94 6.27398 15.1667 6.00065 15.1667Z" fill="#D9D9D9"/>
<path d="M8.00039 6.57812C7.67372 6.57812 7.40039 6.84479 7.40039 7.17813V8.82479C7.40039 9.15813 7.66706 9.42479 8.00039 9.42479C8.33372 9.42479 8.60039 9.15813 8.60039 8.82479V7.17813C8.60039 6.84479 8.32706 6.57812 8.00039 6.57812Z" fill="#D9D9D9"/>
<path d="M10.3538 4.93313C10.1272 4.70646 9.86716 4.51313 9.58716 4.35313C9.49383 4.30646 9.39383 4.25979 9.29383 4.21313C9.19383 4.17313 9.09383 4.13313 8.98716 4.10646C8.88049 4.07313 8.77383 4.04646 8.66716 4.01979C8.66049 4.01979 8.64716 4.01979 8.64049 4.01313C8.43383 3.97313 8.22049 3.95312 8.00716 3.95312H7.99383C7.78049 3.95312 7.57383 3.97313 7.36716 4.01313C7.34049 4.01979 7.31383 4.01979 7.29383 4.03313C7.20049 4.05313 7.10716 4.07313 7.01383 4.10646C6.9005 4.13313 6.78716 4.17979 6.67383 4.22646C6.58716 4.26646 6.50049 4.31313 6.42049 4.35313C6.32049 4.40646 6.23383 4.46646 6.14049 4.52646C5.96716 4.64646 5.80049 4.77979 5.64716 4.93313C5.57383 5.00646 5.50049 5.08646 5.43383 5.16646C5.36716 5.25313 5.30049 5.33313 5.24049 5.42646C5.18049 5.51313 5.12716 5.60646 5.07383 5.69979C4.82049 6.17313 4.67383 6.71313 4.67383 7.28646V8.71313C4.67383 9.86646 5.26049 10.8798 6.14049 11.4731C6.22049 11.5331 6.30716 11.5798 6.39383 11.6331L6.76049 11.8065C6.94716 11.8798 7.14049 11.9398 7.33383 11.9798C7.54716 12.0198 7.76716 12.0465 7.99383 12.0465C8.00049 12.0465 8.00049 12.0465 8.00716 12.0465C8.23383 12.0465 8.45383 12.0198 8.66716 11.9798C8.86716 11.9398 9.06049 11.8798 9.24716 11.8065C9.37383 11.7531 9.49383 11.6931 9.60716 11.6331C10.6338 11.0665 11.3272 9.96646 11.3272 8.71313V7.28646C11.3272 6.36646 10.9538 5.53313 10.3538 4.93313ZM9.60049 8.82646C9.60049 9.70646 8.88049 10.4265 8.00049 10.4265C7.12049 10.4265 6.40049 9.70646 6.40049 8.82646V7.17979C6.40049 6.29979 7.12049 5.57979 8.00049 5.57979C8.88049 5.57979 9.60049 6.29979 9.60049 7.17979V8.82646Z" fill="#D9D9D9"/>
</svg>
