<svg width="88" height="88" viewBox="0 0 88 88" fill="none" xmlns="http://www.w3.org/2000/svg">
<circle cx="44" cy="44" r="44" fill="#D9D9D9" fill-opacity="0.3"/>
<circle cx="44" cy="44" r="36" fill="#D9D9D9"/>
<path d="M44 19C30.2 19 19 30.2 19 44C19 57.8 30.2 69 44 69C57.8 69 69 57.8 69 44C69 30.2 57.8 19 44 19ZM44 35.875C42.975 35.875 42.125 35.025 42.125 34C42.125 32.975 42.975 32.125 44 32.125C50.55 32.125 55.875 37.45 55.875 44C55.875 50.55 50.55 55.875 44 55.875C42.975 55.875 42.125 55.025 42.125 54C42.125 52.975 42.975 52.125 44 52.125C48.475 52.125 52.125 48.475 52.125 44C52.125 39.525 48.475 35.875 44 35.875ZM44 63.375C33.325 63.375 24.625 54.675 24.625 44C24.625 42.975 25.475 42.125 26.5 42.125C27.525 42.125 28.375 42.975 28.375 44C28.375 52.625 35.375 59.625 44 59.625C52.625 59.625 59.625 52.625 59.625 44C59.625 35.375 52.625 28.375 44 28.375C42.975 28.375 42.125 27.525 42.125 26.5C42.125 25.475 42.975 24.625 44 24.625C54.675 24.625 63.375 33.325 63.375 44C63.375 54.675 54.675 63.375 44 63.375Z" fill="#292D32"/>
</svg>
