<svg width="25" height="24" viewBox="0 0 25 24" fill="none" xmlns="http://www.w3.org/2000/svg">
<path fill-rule="evenodd" clip-rule="evenodd" d="M4.32628 4H10.4702C10.6499 4 10.7968 4.14689 10.7968 4.32628V10.4702C10.7968 10.6499 10.6499 10.7968 10.4702 10.7968H4.32628C4.14689 10.7968 4 10.6499 4 10.4702V4.32628C4 4.14689 4.14689 4 4.32628 4ZM13.5307 13.2032H19.6747C19.854 13.2032 20.0012 13.3498 20.0012 13.5295V19.6737C20.0012 19.8531 19.854 20 19.6747 20H13.5307C13.351 20 13.2042 19.8531 13.2042 19.6737V13.5295C13.2042 13.3498 13.351 13.2032 13.5307 13.2032ZM13.5307 4H19.6747C19.854 4 20.0012 4.14689 20.0012 4.32628V10.4702C20.0012 10.6499 19.854 10.7968 19.6747 10.7968H13.5307C13.351 10.7968 13.2042 10.6499 13.2042 10.4702V4.32628C13.2042 4.14689 13.351 4 13.5307 4ZM4.32628 13.2032H10.4702C10.6499 13.2032 10.7968 13.3498 10.7968 13.5295V19.6737C10.7968 19.8531 10.6499 20 10.4702 20H4.32628C4.14689 20 4 19.8531 4 19.6737V13.5295C4 13.3498 4.14689 13.2032 4.32628 13.2032Z" fill="#F4B315"/>
</svg>
