<svg width="243" height="64" viewBox="0 0 243 64" fill="none" xmlns="http://www.w3.org/2000/svg">
<path d="M224.296 32.7072C224.296 29.5557 223.7 26.5525 222.505 23.6947C221.31 20.8369 219.662 18.328 217.554 16.165C215.446 14.0049 212.955 12.2838 210.073 10.9988C207.434 9.82139 204.582 9.19051 201.526 9.09457C201.34 9.08585 201.154 9.07422 200.965 9.07422C200.93 9.07422 200.893 9.07713 200.858 9.07713C200.805 9.07713 200.753 9.07422 200.698 9.07422H200.628C197.256 9.07422 194.13 9.71673 191.252 10.9988C188.374 12.2809 185.891 14.002 183.807 16.165C181.722 18.3251 180.085 20.834 178.891 23.6947C177.696 26.5525 177.1 29.5586 177.1 32.7072C177.1 35.8557 177.696 38.8618 178.891 41.7225C180.085 44.5803 181.734 47.0893 183.841 49.2523C185.949 51.4123 188.441 53.1247 191.322 54.3835C194.203 55.6424 197.328 56.2732 200.698 56.2732H200.715C201.166 56.2732 201.611 56.2587 202.052 56.2354C203.3 56.1686 204.512 56.0116 205.692 55.7616C206.899 55.5057 208.07 55.154 209.207 54.7091C209.475 54.6045 209.739 54.4969 210.004 54.3806C211.239 53.8399 212.402 53.2148 213.495 52.5084C214.487 51.8659 215.42 51.1565 216.295 50.3803C216.702 50.0169 217.1 49.6418 217.481 49.2494C218.42 48.2841 219.272 47.2492 220.037 46.1473C220.984 44.778 221.796 43.3041 222.47 41.7196C223.688 38.8618 224.296 35.8557 224.296 32.7043" fill="black"/>
<path d="M213.475 50.9776C213.454 50.681 213.437 50.5444 213.434 50.4077C213.303 45.0933 213.175 39.776 213.041 34.4615C213.012 33.3684 212.992 32.2695 212.89 31.1822C212.727 29.4146 212.512 27.647 212.294 25.8852C212.225 25.3241 212.428 24.9374 212.835 24.5595C214.111 23.3733 214.879 21.9139 215.138 20.2044C215.396 18.4804 215.26 16.7826 214.681 15.1313C214.361 14.2184 213.876 13.3986 213.088 12.7823C211.983 11.9188 210.629 11.8519 209.567 12.7532C208.986 13.2474 208.448 13.8928 208.149 14.5789C207.756 15.4831 207.509 16.4803 207.387 17.46C207.082 19.9195 207.489 22.2773 209.323 24.0914C210.216 24.9752 210.364 25.8532 210.192 26.9405C210.149 27.2225 210.131 27.5074 210.096 27.7923C209.922 29.2721 209.634 30.7519 209.588 32.2346C209.384 38.7701 209.25 45.3084 209.093 51.8468C209.093 51.9369 209.088 52.0213 209.088 52.0998V54.7279C210.631 54.1523 212.097 53.4255 213.463 52.5678" fill="#F4B315"/>
<path d="M216.255 50.3931C217.63 49.1808 218.859 47.8056 219.915 46.3055V44.5641C219.862 44.2908 219.857 44.0408 219.862 43.7908C219.906 42.0871 219.761 40.4009 219.49 38.7176C219.287 37.4472 219.173 36.1622 219.019 34.8801C218.964 34.4178 219.095 34.0515 219.432 33.7026C220.546 32.5485 221.028 31.1414 220.941 29.5337C220.819 27.3038 220.688 25.074 220.557 22.8441C220.502 21.9051 220.441 20.9689 220.383 20.0183H219.813V27.8416H219.121V19.9805C218.848 19.9921 218.641 20.0037 218.383 20.0154V27.83H217.708V20.0154H216.967V27.8387H216.295V20.0095H215.76C215.746 20.1549 215.725 20.277 215.72 20.3991C215.542 23.4285 215.371 26.4607 215.193 29.49C215.092 31.1937 215.659 32.6299 216.807 33.8654C216.976 34.0457 217.1 34.3568 217.095 34.601C217.071 35.4005 217.013 36.2058 216.903 36.9965C216.621 39.0025 216.22 40.9911 216.263 43.0378C216.301 44.7996 216.275 46.5613 216.266 48.3231" fill="#F4B315"/>
<path d="M206.135 54.1006V53.4319C206.133 49.8328 206.124 46.2307 206.127 42.6315C206.127 41.8786 205.946 41.1895 205.534 40.5587C205.403 40.3581 205.278 40.1546 205.17 39.9423C204.836 39.2969 204.836 38.6661 205.289 38.0643C205.557 37.7067 205.839 37.3578 206.074 36.9799C206.22 36.7444 206.356 36.4711 206.383 36.2036C206.647 33.6656 206.955 31.1276 207.115 28.5808C207.351 24.8538 207.258 21.1267 206.496 17.449C205.935 14.7366 205.028 12.1608 203.333 9.91056C203.217 9.75648 203.089 9.60821 202.964 9.45703C202.853 9.76811 202.853 10.0327 202.853 10.2972C202.836 19.1643 202.821 28.0285 202.789 36.8956C202.783 38.1079 202.94 39.3405 202.472 40.5209C202.411 40.675 202.449 40.8668 202.449 41.0413C202.449 45.3556 202.449 49.67 202.452 53.9843V54.557V56.2054C203.711 56.1386 204.941 55.9729 206.133 55.7257" fill="#F4B315"/>
<path d="M200.719 54.6292V51.9632C191.012 52.033 182.214 44.4829 181.476 34.1215C181.133 29.3013 182.403 24.9114 185.363 21.0913C189.224 16.1112 194.396 13.6488 200.678 13.4685V9.13962C188.974 8.94774 177.592 18.2858 177.031 31.7696C176.478 45.0149 187.002 56.1584 200.425 56.3183C200.521 56.3183 200.617 56.3183 200.713 56.3183" fill="#F4B315"/>
<path d="M184.65 42.0622C184.685 42.1203 184.72 42.1785 184.755 42.2366H188.325V46.6672C188.798 47.0975 189.293 47.4958 189.807 47.865V40.7539H183.949C184.164 41.19 184.4 41.6261 184.65 42.0622Z" fill="#F4B315"/>
<path d="M189.807 17.6055C189.301 17.9689 188.804 18.3643 188.324 18.7945V22.2658H185.327C185.277 22.3414 185.225 22.4169 185.176 22.4925C184.908 22.9083 184.658 23.3269 184.426 23.7485H189.81V17.6055H189.807Z" fill="#F4B315"/>
<path d="M195.843 50.393V40.0141H197.869V48.3695H200.686V31.1325H199.797V34.7113H197.77V29.1062H200.684V28.1846H197.77V18.675H196.584V23.2655H194.558V16.6487H199.811V18.675H199.794V26.1582H200.684V22.9457H200.265V20.9194H200.684V14.1862C200.402 14.1775 200.111 14.1775 199.811 14.1862V16.137H194.558V15.1602C194.407 15.2125 194.253 15.2648 194.101 15.323V19.7158H192.075V16.2184C191.84 16.3405 191.607 16.4655 191.375 16.5992V25.3209H183.627C182.932 26.8443 182.452 28.3794 182.19 29.9231V32.1064H181.967C181.964 32.1966 181.961 32.2896 181.961 32.3797H182.19V34.4061H182.048C182.179 35.6475 182.449 36.8889 182.862 38.1302V31.7256H188.116V33.7519H184.885V38.3425H182.929C183.025 38.6245 183.132 38.9036 183.243 39.1856H191.372V48.8696C191.779 49.0993 192.197 49.3115 192.625 49.5063V48.3695H194.651V50.2941C196.509 50.8959 198.523 51.2361 200.678 51.3291V50.393H195.837H195.843ZM198.297 35.5399H200.323V41.145H198.297V35.5399ZM198.297 41.712H200.323V43.7383H198.297V41.712ZM185.697 26.1553H190.95V28.1817H185.697V26.1553ZM183.444 26.1553H185.47V28.1817H183.444V26.1553ZM188.459 31.1267H183.202V29.1004H188.459V31.1267ZM190.819 38.3396H188.793V32.7344H190.819V38.3396ZM190.994 31.0424H188.967V29.0161H190.994V31.0424ZM194.558 28.8794H196.584V30.9058H194.558V28.8794ZM192.075 19.9862H194.101V22.0125H192.075V19.9862ZM192.075 24.3034H194.101V26.3298H192.075V24.3034ZM192.075 26.8153H194.101V32.4204H192.075V26.8153ZM191.616 32.7315H197.221V38.3367H191.616V32.7315ZM194.654 45.128H192.628V39.5228H194.654V45.128Z" fill="#F4B315"/>
<path d="M1.1629 4.07013C1.1629 2.46825 2.46825 1.1629 4.07013 1.1629H19.5803V0H4.07013C1.82575 0 0 1.82575 0 4.07013V16.8038H1.1629V4.07013Z" fill="black"/>
<path d="M19.5803 62.6449H4.07013C2.46825 62.6449 1.1629 61.3395 1.1629 59.7376V47.0039H0V59.7376C0 61.982 1.82575 63.8078 4.07013 63.8078H19.5803V62.6449Z" fill="black"/>
<path d="M241.648 4.07013V16.8038H242.811V4.07013C242.811 1.82575 240.985 0 238.741 0H223.23V1.1629H238.741C240.343 1.1629 241.648 2.46825 241.648 4.07013Z" fill="black"/>
<path d="M241.648 47.0039V59.7376C241.648 61.3395 240.343 62.6449 238.741 62.6449H223.23V63.8078H238.741C240.985 63.8078 242.811 61.982 242.811 59.7376V47.0039H241.648Z" fill="black"/>
<path d="M39.2592 10.3545C42.0443 10.3545 44.6695 10.8807 47.1348 11.9302C49.6002 12.9797 51.7458 14.4188 53.5715 16.2445C55.3973 18.0703 56.8363 20.2158 57.8858 22.6812C58.9353 25.1465 59.4615 27.7717 59.4615 30.5569V35.694C59.4615 38.4791 58.9353 41.1043 57.8858 43.5697C56.8363 46.035 55.3973 48.1922 53.5715 50.0412C51.7458 51.8902 49.6002 53.3409 47.1348 54.3904C44.6695 55.4399 42.0443 55.9661 39.2592 55.9661H22.6152V10.3516H39.2592V10.3545ZM31.1101 55.5562C33.6191 55.3295 35.9624 54.655 38.1312 53.5357C40.3 52.4164 42.1955 50.9686 43.8148 49.1865C45.4341 47.4043 46.7016 45.3634 47.6145 43.058C48.5274 40.7526 48.9838 38.2988 48.9838 35.6969V30.6964C48.9838 28.0944 48.5274 25.6407 47.6145 23.3353C46.7016 21.0299 45.4341 18.9861 43.8148 17.2068C42.1926 15.4276 40.2971 13.9769 38.1312 12.8576C35.9624 11.7383 33.622 11.0667 31.1101 10.8371V55.5591V55.5562Z" fill="black"/>
<path d="M59.8086 55.9661L70.013 10.3516H80.6274L90.6952 55.9661H81.9299L78.7115 41.5143L64.0562 47.8142L62.2071 55.9632H59.8086V55.9661ZM64.1927 46.9944L78.5749 40.8311L72.1382 11.7238L64.1927 46.9944Z" fill="black"/>
<path d="M90.8319 32.9546C90.8319 29.7595 91.4134 26.7127 92.5792 23.8113C93.7421 20.9128 95.3526 18.366 97.4081 16.174C99.4635 13.9819 101.882 12.2347 104.667 10.9351C107.453 9.6327 110.488 8.98438 113.776 8.98438H113.843C116.721 8.98438 119.468 9.51059 122.096 10.5601C124.722 11.6096 127.106 13.1417 129.254 15.1477V16.174C127.748 14.1651 125.864 12.7725 123.602 11.9963C121.343 11.22 119.003 10.8305 116.581 10.8305C113.796 10.8305 111.331 11.5398 109.185 12.9528C107.04 14.3686 105.246 16.1711 103.81 18.3631C102.371 20.5552 101.286 22.9624 100.557 25.5876C99.824 28.2129 99.4606 30.7363 99.4606 33.1552C99.4606 35.574 99.824 38.1091 100.557 40.7576C101.286 43.4061 102.371 45.8249 103.81 48.017C105.249 50.209 107.04 52.0115 109.185 53.4273C111.331 54.8432 113.796 55.5496 116.581 55.5496C118.407 55.506 120.268 55.163 122.163 54.5234C124.059 53.8838 125.783 52.9476 127.335 51.715V32.4691H116.581V31.7829H135.278V31.8527H135.757V55.9595H127.332V52.3284C125.37 53.7907 123.245 54.9188 120.963 55.7182C118.68 56.5148 116.305 56.916 113.84 56.916C110.552 56.916 107.505 56.2648 104.697 54.9653C101.888 53.6628 99.4577 51.9185 97.4022 49.7264C95.3468 47.5344 93.7392 44.9905 92.5734 42.0891C91.4105 39.1906 90.8262 36.1438 90.8262 32.9458" fill="black"/>
<path d="M148.292 10.3516H139.867V55.9661H148.292V10.3516Z" fill="black"/>
<path d="M179.795 10.3516L159.866 55.4167H177.193V55.9632H150.824L170.686 10.9679H153.566V10.3516H179.795Z" fill="black"/>
</svg>
