<svg width="23" height="24" viewBox="0 0 23 24" fill="none" xmlns="http://www.w3.org/2000/svg">
<path d="M18.9164 10.2083L19.4081 18.45C19.4247 18.675 19.3164 18.825 19.2581 18.8917C19.1914 18.9667 19.0497 19.0833 18.8164 19.0833H16.5414L18.3414 10.2083H18.9164ZM19.8331 7L19.8247 7.01667C19.8414 7.21667 19.8247 7.425 19.7747 7.63333L13.6331 18.9083C13.4331 19.75 12.6831 20.3333 11.8164 20.3333H18.8164C19.8914 20.3333 20.7414 19.425 20.6581 18.35L19.8331 7Z" fill="#CCCCCC"/>
<path d="M11.0415 3.86585C11.1249 3.53252 10.9165 3.19085 10.5832 3.10752C10.2499 3.03252 9.9082 3.23252 9.82487 3.56585L9.4082 5.29085H10.6915L11.0415 3.86585Z" fill="#CCCCCC"/>
<path d="M16.5414 3.84244C16.6164 3.50078 16.3997 3.17578 16.0581 3.10078C15.7247 3.02578 15.3914 3.24244 15.3164 3.58411L14.9414 5.30911H16.2247L16.5414 3.84244Z" fill="#CCCCCC"/>
<path d="M19.6838 6.44154C19.4088 5.77487 18.7588 5.29987 17.9588 5.29987H16.2254L15.7588 7.4582C15.6921 7.74987 15.4338 7.94987 15.1504 7.94987C15.1088 7.94987 15.0588 7.94987 15.0171 7.9332C14.6838 7.8582 14.4671 7.52487 14.5338 7.19154L14.9421 5.29154H10.6921L10.1671 7.4582C10.1004 7.74154 9.84211 7.9332 9.55878 7.9332C9.50878 7.9332 9.45878 7.92487 9.40878 7.91654C9.07545 7.8332 8.86711 7.49987 8.95045 7.1582L9.40045 5.2832H7.70878C6.89211 5.2832 6.16711 5.81654 5.92545 6.59987L2.41711 17.8915C2.05045 19.0999 2.94211 20.3332 4.20045 20.3332H15.1504C16.0171 20.3332 16.7671 19.7499 16.9671 18.9082L19.7754 7.6332C19.8254 7.42487 19.8421 7.21654 19.8254 7.01654C19.8088 6.81654 19.7671 6.61654 19.6838 6.44154ZM13.7504 15.9582H7.08378C6.74211 15.9582 6.45878 15.6749 6.45878 15.3332C6.45878 14.9915 6.74211 14.7082 7.08378 14.7082H13.7504C14.0921 14.7082 14.3754 14.9915 14.3754 15.3332C14.3754 15.6749 14.0921 15.9582 13.7504 15.9582ZM14.5838 12.6249H7.91711C7.57545 12.6249 7.29211 12.3415 7.29211 11.9999C7.29211 11.6582 7.57545 11.3749 7.91711 11.3749H14.5838C14.9254 11.3749 15.2088 11.6582 15.2088 11.9999C15.2088 12.3415 14.9254 12.6249 14.5838 12.6249Z" fill="#CCCCCC"/>
</svg>
