<svg width="139" height="94" viewBox="0 0 139 94" fill="none" xmlns="http://www.w3.org/2000/svg">
<g filter="url(#filter0_d_1610_19353)">
<rect x="1" y="1" width="137" height="92" rx="4" fill="#FAFAFA"/>
</g>
<path d="M42.06 73V65.488H39.132V64.54H46.128V65.488H43.188V73H42.06ZM48.5793 73.108C48.0513 73.108 47.5873 72.984 47.1873 72.736C46.7873 72.488 46.4753 72.128 46.2513 71.656C46.0273 71.184 45.9153 70.624 45.9153 69.976C45.9153 69.328 46.0273 68.772 46.2513 68.308C46.4753 67.836 46.7873 67.476 47.1873 67.228C47.5873 66.98 48.0513 66.856 48.5793 66.856C49.1153 66.856 49.5793 66.992 49.9713 67.264C50.3713 67.528 50.6353 67.892 50.7633 68.356H50.6193L50.7513 66.964H51.8073C51.7833 67.204 51.7593 67.444 51.7353 67.684C51.7193 67.924 51.7113 68.16 51.7113 68.392V73H50.6193V71.62H50.7513C50.6233 72.076 50.3593 72.44 49.9593 72.712C49.5673 72.976 49.1073 73.108 48.5793 73.108ZM48.8313 72.244C49.3753 72.244 49.8113 72.052 50.1393 71.668C50.4673 71.284 50.6313 70.72 50.6313 69.976C50.6313 69.232 50.4673 68.672 50.1393 68.296C49.8113 67.92 49.3753 67.732 48.8313 67.732C48.2873 67.732 47.8473 67.92 47.5113 68.296C47.1833 68.672 47.0193 69.232 47.0193 69.976C47.0193 70.72 47.1833 71.284 47.5113 71.668C47.8393 72.052 48.2793 72.244 48.8313 72.244ZM53.5409 73V64.168H54.6329V69.628H54.6569L57.3809 66.964H58.7369L55.4969 70.132L55.5089 69.616L59.0249 73H57.6329L54.6569 70.192H54.6329V73H53.5409ZM62.4295 73.108C61.4695 73.108 60.7095 72.832 60.1495 72.28C59.5975 71.728 59.3215 70.968 59.3215 70C59.3215 69.36 59.4415 68.808 59.6815 68.344C59.9295 67.872 60.2695 67.508 60.7015 67.252C61.1335 66.988 61.6375 66.856 62.2135 66.856C62.7655 66.856 63.2335 66.976 63.6175 67.216C64.0015 67.448 64.2935 67.78 64.4935 68.212C64.6935 68.644 64.7935 69.156 64.7935 69.748V70.108H60.1735V69.46H64.0495L63.8455 69.616C63.8455 68.992 63.7055 68.508 63.4255 68.164C63.1535 67.82 62.7495 67.648 62.2135 67.648C61.6295 67.648 61.1775 67.852 60.8575 68.26C60.5375 68.66 60.3775 69.208 60.3775 69.904V70.012C60.3775 70.748 60.5575 71.304 60.9175 71.68C61.2855 72.056 61.7935 72.244 62.4415 72.244C62.8015 72.244 63.1375 72.192 63.4495 72.088C63.7615 71.984 64.0615 71.812 64.3495 71.572L64.7095 72.328C64.4375 72.576 64.0975 72.768 63.6895 72.904C63.2895 73.04 62.8695 73.108 62.4295 73.108ZM71.6887 73.108C71.1607 73.108 70.6967 72.984 70.2967 72.736C69.8967 72.488 69.5847 72.128 69.3607 71.656C69.1367 71.184 69.0247 70.624 69.0247 69.976C69.0247 69.328 69.1367 68.772 69.3607 68.308C69.5847 67.836 69.8967 67.476 70.2967 67.228C70.6967 66.98 71.1607 66.856 71.6887 66.856C72.2247 66.856 72.6887 66.992 73.0807 67.264C73.4807 67.528 73.7447 67.892 73.8727 68.356H73.7287L73.8607 66.964H74.9167C74.8927 67.204 74.8687 67.444 74.8447 67.684C74.8287 67.924 74.8207 68.16 74.8207 68.392V73H73.7287V71.62H73.8607C73.7327 72.076 73.4687 72.44 73.0687 72.712C72.6767 72.976 72.2167 73.108 71.6887 73.108ZM71.9407 72.244C72.4847 72.244 72.9207 72.052 73.2487 71.668C73.5767 71.284 73.7407 70.72 73.7407 69.976C73.7407 69.232 73.5767 68.672 73.2487 68.296C72.9207 67.92 72.4847 67.732 71.9407 67.732C71.3967 67.732 70.9567 67.92 70.6207 68.296C70.2927 68.672 70.1287 69.232 70.1287 69.976C70.1287 70.72 70.2927 71.284 70.6207 71.668C70.9487 72.052 71.3887 72.244 71.9407 72.244ZM78.2237 73L75.9677 66.964H77.1077L78.9317 72.136H78.6197L80.4917 66.964H81.3797L83.2397 72.136H82.9397L84.7757 66.964H85.8677L83.5997 73H82.5677L80.6477 67.744H81.1757L79.2677 73H78.2237ZM89.2433 73.108C88.7153 73.108 88.2513 72.984 87.8513 72.736C87.4513 72.488 87.1393 72.128 86.9153 71.656C86.6913 71.184 86.5793 70.624 86.5793 69.976C86.5793 69.328 86.6913 68.772 86.9153 68.308C87.1393 67.836 87.4513 67.476 87.8513 67.228C88.2513 66.98 88.7153 66.856 89.2433 66.856C89.7793 66.856 90.2433 66.992 90.6353 67.264C91.0353 67.528 91.2993 67.892 91.4273 68.356H91.2833L91.4153 66.964H92.4713C92.4473 67.204 92.4233 67.444 92.3993 67.684C92.3833 67.924 92.3753 68.16 92.3753 68.392V73H91.2833V71.62H91.4153C91.2873 72.076 91.0233 72.44 90.6233 72.712C90.2313 72.976 89.7713 73.108 89.2433 73.108ZM89.4953 72.244C90.0393 72.244 90.4753 72.052 90.8033 71.668C91.1313 71.284 91.2953 70.72 91.2953 69.976C91.2953 69.232 91.1313 68.672 90.8033 68.296C90.4753 67.92 90.0393 67.732 89.4953 67.732C88.9513 67.732 88.5113 67.92 88.1753 68.296C87.8473 68.672 87.6833 69.232 87.6833 69.976C87.6833 70.72 87.8473 71.284 88.1753 71.668C88.5033 72.052 88.9433 72.244 89.4953 72.244ZM93.9424 75.724L93.6904 74.836C94.0664 74.748 94.3784 74.644 94.6264 74.524C94.8744 74.412 95.0824 74.264 95.2504 74.08C95.4184 73.896 95.5664 73.664 95.6944 73.384L95.9944 72.664L95.9704 73.12L93.3424 66.964H94.5184L96.6184 72.136H96.3064L98.4064 66.964H99.5344L96.7624 73.468C96.5944 73.86 96.4104 74.188 96.2104 74.452C96.0184 74.716 95.8064 74.932 95.5744 75.1C95.3504 75.268 95.1024 75.4 94.8304 75.496C94.5584 75.592 94.2624 75.668 93.9424 75.724Z" fill="#999999"/>
<path fill-rule="evenodd" clip-rule="evenodd" d="M67.9403 19.0501C65.9467 19.1369 65.6046 19.199 64.715 19.6353C62.8823 20.5341 61.3583 22.5036 61.062 24.3558L60.9486 25.0645H61.571C62.0028 25.0645 62.1934 24.9877 62.1934 24.8137C62.1934 24.1514 62.9635 22.6081 63.6426 21.9092C64.3431 21.1885 65.5408 20.4327 65.9826 20.4327C66.0925 20.4327 65.8572 20.7859 65.4593 21.2175C64.6839 22.0588 64.0137 23.379 63.8332 24.4212C63.7222 25.0623 63.7238 25.0645 64.3163 25.0645C64.8481 25.0645 64.9236 25.0055 65.0315 24.507C65.2499 23.4965 65.935 22.3806 66.8321 21.5742C68.4362 20.1319 69.5053 20.134 71.1165 21.5827C72.0433 22.4158 72.5001 23.1552 72.8182 24.3365C73.0009 25.0149 73.0547 25.0645 73.6081 25.0645C74.2846 25.0645 74.2746 25.0952 73.9693 23.9494C73.6577 22.7807 73.2695 22.0741 72.45 21.1851C71.719 20.3922 71.7993 20.2467 72.7094 20.7154C74.17 21.4676 75.2063 22.7421 75.5829 24.2497C75.7772 25.0273 75.8139 25.0645 76.3857 25.0645C76.9848 25.0645 76.9848 25.0643 76.8664 24.4212C76.3239 21.4745 73.9363 19.3293 70.8566 19.0217C70.4792 18.9839 69.1669 18.9968 67.9403 19.0501ZM60.2308 26.9945C60.1777 27.3955 59.9028 30.657 59.6199 34.2424C59.3372 37.8278 58.878 43.6177 58.5996 47.1087C58.3213 50.5997 58.0724 53.7943 58.0468 54.2076L58 54.9592L67.4095 54.9796C73.5526 54.993 76.836 54.9405 76.8683 54.8284C76.8956 54.7341 76.9628 48.2689 77.0179 40.4611L77.1177 26.2654H68.7226H60.3274L60.2308 26.9945ZM78.299 30.7257C78.2589 32.3768 78.2276 38.5031 78.2297 44.3394L78.2333 54.9509L79.3057 54.9755L80.3778 55V54.3788C80.3777 53.8304 79.2369 38.5554 78.6049 30.6399L78.3719 27.7235L78.299 30.7257ZM71.6521 35.8161C71.0731 36.4577 70.5993 37.0415 70.5993 37.1135C70.5993 37.4357 71.069 37.1753 72.0649 36.301C72.6559 35.7821 73.2242 35.3575 73.3277 35.3575C73.7215 35.3575 73.4807 35.78 72.4728 36.8576C71.7669 37.6122 71.4862 38.0286 71.6043 38.1466C71.7221 38.2644 72.1553 37.9807 72.9449 37.2681C73.5865 36.6891 74.1703 36.2153 74.2424 36.2153C74.5796 36.2153 74.2822 36.6918 73.2412 37.8194C71.9642 39.2026 71.4799 39.521 70.7659 39.4461C70.3914 39.4068 70.1181 39.5404 69.6498 39.9919L69.0295 40.5898L71.7288 43.1708C74.1828 45.5172 74.4179 45.7931 74.3146 46.2045C74.1847 46.7219 73.6721 46.9522 73.222 46.6954C73.0532 46.5992 71.8731 45.4055 70.5993 44.0428C69.3256 42.68 68.2448 41.5651 68.1976 41.5651C68.1504 41.5651 67.0697 42.68 65.7959 44.0428C64.5222 45.4055 63.3421 46.5992 63.1733 46.6954C62.7238 46.9519 62.2105 46.722 62.0812 46.2065C61.9786 45.7979 62.2188 45.5165 64.6706 43.173L67.373 40.5898L66.9194 40.1662C66.5374 39.8094 66.2939 39.742 65.3729 39.7374C64.4482 39.7329 64.2089 39.666 63.82 39.3032C63.2031 38.7276 62.5531 37.4139 62.4258 36.4851C62.3344 35.8185 62.3774 35.6725 62.7854 35.2645C63.1861 34.8638 63.351 34.8127 64.0051 34.8864C65.078 35.0074 66.6144 35.8034 67.0222 36.4494C67.2915 36.8761 67.345 37.1907 67.2814 37.9723C67.2055 38.9033 67.2297 38.9813 67.7241 39.3972L68.247 39.8372L68.8227 39.2792C69.3108 38.8062 69.3983 38.6022 69.3971 37.94C69.3956 37.1813 69.4383 37.118 70.8846 35.7387C71.8412 34.8266 72.433 34.3778 72.5394 34.4842C72.6456 34.5903 72.3282 35.0667 71.6521 35.8161Z" fill="#999999"/>
<defs>
<filter id="filter0_d_1610_19353" x="0" y="0" width="139" height="94" filterUnits="userSpaceOnUse" color-interpolation-filters="sRGB">
<feFlood flood-opacity="0" result="BackgroundImageFix"/>
<feColorMatrix in="SourceAlpha" type="matrix" values="0 0 0 0 0 0 0 0 0 0 0 0 0 0 0 0 0 0 127 0" result="hardAlpha"/>
<feOffset/>
<feGaussianBlur stdDeviation="0.5"/>
<feComposite in2="hardAlpha" operator="out"/>
<feColorMatrix type="matrix" values="0 0 0 0 0 0 0 0 0 0 0 0 0 0 0 0 0 0 0.25 0"/>
<feBlend mode="normal" in2="BackgroundImageFix" result="effect1_dropShadow_1610_19353"/>
<feBlend mode="normal" in="SourceGraphic" in2="effect1_dropShadow_1610_19353" result="shape"/>
</filter>
</defs>
</svg>
