<svg width="177" height="132" viewBox="0 0 177 132" fill="none" xmlns="http://www.w3.org/2000/svg">
<g filter="url(#filter0_d_2978_46412)">
<rect x="20" y="10" width="137" height="92" rx="4" fill="white"/>
<rect x="20.25" y="10.25" width="136.5" height="91.5" rx="3.75" stroke="#F4B315" stroke-width="0.5" stroke-dasharray="1 1"/>
</g>
<path d="M61.06 82V74.488H58.132V73.54H65.128V74.488H62.188V82H61.06ZM67.5793 82.108C67.0513 82.108 66.5873 81.984 66.1873 81.736C65.7873 81.488 65.4753 81.128 65.2513 80.656C65.0273 80.184 64.9153 79.624 64.9153 78.976C64.9153 78.328 65.0273 77.772 65.2513 77.308C65.4753 76.836 65.7873 76.476 66.1873 76.228C66.5873 75.98 67.0513 75.856 67.5793 75.856C68.1153 75.856 68.5793 75.992 68.9713 76.264C69.3713 76.528 69.6353 76.892 69.7633 77.356H69.6193L69.7513 75.964H70.8073C70.7833 76.204 70.7593 76.444 70.7353 76.684C70.7193 76.924 70.7113 77.16 70.7113 77.392V82H69.6193V80.62H69.7513C69.6233 81.076 69.3593 81.44 68.9593 81.712C68.5673 81.976 68.1073 82.108 67.5793 82.108ZM67.8313 81.244C68.3753 81.244 68.8113 81.052 69.1393 80.668C69.4673 80.284 69.6313 79.72 69.6313 78.976C69.6313 78.232 69.4673 77.672 69.1393 77.296C68.8113 76.92 68.3753 76.732 67.8313 76.732C67.2873 76.732 66.8473 76.92 66.5113 77.296C66.1833 77.672 66.0193 78.232 66.0193 78.976C66.0193 79.72 66.1833 80.284 66.5113 80.668C66.8393 81.052 67.2793 81.244 67.8313 81.244ZM72.5409 82V73.168H73.6329V78.628H73.6569L76.3809 75.964H77.7369L74.4969 79.132L74.5089 78.616L78.0249 82H76.6329L73.6569 79.192H73.6329V82H72.5409ZM81.4295 82.108C80.4695 82.108 79.7095 81.832 79.1495 81.28C78.5975 80.728 78.3215 79.968 78.3215 79C78.3215 78.36 78.4415 77.808 78.6815 77.344C78.9295 76.872 79.2695 76.508 79.7015 76.252C80.1335 75.988 80.6375 75.856 81.2135 75.856C81.7655 75.856 82.2335 75.976 82.6175 76.216C83.0015 76.448 83.2935 76.78 83.4935 77.212C83.6935 77.644 83.7935 78.156 83.7935 78.748V79.108H79.1735V78.46H83.0495L82.8455 78.616C82.8455 77.992 82.7055 77.508 82.4255 77.164C82.1535 76.82 81.7495 76.648 81.2135 76.648C80.6295 76.648 80.1775 76.852 79.8575 77.26C79.5375 77.66 79.3775 78.208 79.3775 78.904V79.012C79.3775 79.748 79.5575 80.304 79.9175 80.68C80.2855 81.056 80.7935 81.244 81.4415 81.244C81.8015 81.244 82.1375 81.192 82.4495 81.088C82.7615 80.984 83.0615 80.812 83.3495 80.572L83.7095 81.328C83.4375 81.576 83.0975 81.768 82.6895 81.904C82.2895 82.04 81.8695 82.108 81.4295 82.108ZM90.6887 82.108C90.1607 82.108 89.6967 81.984 89.2967 81.736C88.8967 81.488 88.5847 81.128 88.3607 80.656C88.1367 80.184 88.0247 79.624 88.0247 78.976C88.0247 78.328 88.1367 77.772 88.3607 77.308C88.5847 76.836 88.8967 76.476 89.2967 76.228C89.6967 75.98 90.1607 75.856 90.6887 75.856C91.2247 75.856 91.6887 75.992 92.0807 76.264C92.4807 76.528 92.7447 76.892 92.8727 77.356H92.7287L92.8607 75.964H93.9167C93.8927 76.204 93.8687 76.444 93.8447 76.684C93.8287 76.924 93.8207 77.16 93.8207 77.392V82H92.7287V80.62H92.8607C92.7327 81.076 92.4687 81.44 92.0687 81.712C91.6767 81.976 91.2167 82.108 90.6887 82.108ZM90.9407 81.244C91.4847 81.244 91.9207 81.052 92.2487 80.668C92.5767 80.284 92.7407 79.72 92.7407 78.976C92.7407 78.232 92.5767 77.672 92.2487 77.296C91.9207 76.92 91.4847 76.732 90.9407 76.732C90.3967 76.732 89.9567 76.92 89.6207 77.296C89.2927 77.672 89.1287 78.232 89.1287 78.976C89.1287 79.72 89.2927 80.284 89.6207 80.668C89.9487 81.052 90.3887 81.244 90.9407 81.244ZM97.2237 82L94.9677 75.964H96.1077L97.9317 81.136H97.6197L99.4917 75.964H100.38L102.24 81.136H101.94L103.776 75.964H104.868L102.6 82H101.568L99.6477 76.744H100.176L98.2677 82H97.2237ZM108.243 82.108C107.715 82.108 107.251 81.984 106.851 81.736C106.451 81.488 106.139 81.128 105.915 80.656C105.691 80.184 105.579 79.624 105.579 78.976C105.579 78.328 105.691 77.772 105.915 77.308C106.139 76.836 106.451 76.476 106.851 76.228C107.251 75.98 107.715 75.856 108.243 75.856C108.779 75.856 109.243 75.992 109.635 76.264C110.035 76.528 110.299 76.892 110.427 77.356H110.283L110.415 75.964H111.471C111.447 76.204 111.423 76.444 111.399 76.684C111.383 76.924 111.375 77.16 111.375 77.392V82H110.283V80.62H110.415C110.287 81.076 110.023 81.44 109.623 81.712C109.231 81.976 108.771 82.108 108.243 82.108ZM108.495 81.244C109.039 81.244 109.475 81.052 109.803 80.668C110.131 80.284 110.295 79.72 110.295 78.976C110.295 78.232 110.131 77.672 109.803 77.296C109.475 76.92 109.039 76.732 108.495 76.732C107.951 76.732 107.511 76.92 107.175 77.296C106.847 77.672 106.683 78.232 106.683 78.976C106.683 79.72 106.847 80.284 107.175 80.668C107.503 81.052 107.943 81.244 108.495 81.244ZM112.942 84.724L112.69 83.836C113.066 83.748 113.378 83.644 113.626 83.524C113.874 83.412 114.082 83.264 114.25 83.08C114.418 82.896 114.566 82.664 114.694 82.384L114.994 81.664L114.97 82.12L112.342 75.964H113.518L115.618 81.136H115.306L117.406 75.964H118.534L115.762 82.468C115.594 82.86 115.41 83.188 115.21 83.452C115.018 83.716 114.806 83.932 114.574 84.1C114.35 84.268 114.102 84.4 113.83 84.496C113.558 84.592 113.262 84.668 112.942 84.724Z" fill="#F4B315"/>
<path fill-rule="evenodd" clip-rule="evenodd" d="M86.9403 28.0501C84.9467 28.1369 84.6046 28.199 83.715 28.6353C81.8823 29.5341 80.3583 31.5036 80.062 33.3558L79.9486 34.0645H80.571C81.0028 34.0645 81.1934 33.9877 81.1934 33.8137C81.1934 33.1514 81.9635 31.6081 82.6426 30.9092C83.3431 30.1885 84.5408 29.4327 84.9826 29.4327C85.0925 29.4327 84.8572 29.7859 84.4593 30.2175C83.6839 31.0588 83.0137 32.379 82.8332 33.4212C82.7222 34.0623 82.7238 34.0645 83.3163 34.0645C83.8481 34.0645 83.9236 34.0055 84.0315 33.507C84.2499 32.4965 84.935 31.3806 85.8321 30.5742C87.4362 29.1319 88.5053 29.134 90.1165 30.5827C91.0433 31.4158 91.5001 32.1552 91.8182 33.3365C92.0009 34.0149 92.0547 34.0645 92.6081 34.0645C93.2846 34.0645 93.2746 34.0952 92.9693 32.9494C92.6577 31.7807 92.2695 31.0741 91.45 30.1851C90.719 29.3922 90.7993 29.2467 91.7094 29.7154C93.17 30.4676 94.2063 31.7421 94.5829 33.2497C94.7772 34.0273 94.8139 34.0645 95.3857 34.0645C95.9848 34.0645 95.9848 34.0643 95.8664 33.4212C95.3239 30.4745 92.9363 28.3293 89.8566 28.0217C89.4792 27.9839 88.1669 27.9968 86.9403 28.0501ZM79.2308 35.9945C79.1777 36.3955 78.9028 39.657 78.6199 43.2424C78.3372 46.8278 77.878 52.6177 77.5996 56.1087C77.3213 59.5997 77.0724 62.7943 77.0468 63.2076L77 63.9592L86.4095 63.9796C92.5526 63.993 95.836 63.9405 95.8683 63.8284C95.8956 63.7341 95.9628 57.2689 96.0179 49.4611L96.1177 35.2654H87.7226H79.3274L79.2308 35.9945ZM97.299 39.7257C97.2589 41.3768 97.2276 47.5031 97.2297 53.3394L97.2333 63.9509L98.3057 63.9755L99.3778 64V63.3788C99.3777 62.8304 98.2369 47.5554 97.6049 39.6399L97.3719 36.7235L97.299 39.7257ZM90.6521 44.8161C90.0731 45.4577 89.5993 46.0415 89.5993 46.1135C89.5993 46.4357 90.069 46.1753 91.0649 45.301C91.6559 44.7821 92.2242 44.3575 92.3277 44.3575C92.7215 44.3575 92.4807 44.78 91.4728 45.8576C90.7669 46.6122 90.4862 47.0286 90.6043 47.1466C90.7221 47.2644 91.1553 46.9807 91.9449 46.2681C92.5865 45.6891 93.1703 45.2153 93.2424 45.2153C93.5796 45.2153 93.2822 45.6918 92.2412 46.8194C90.9642 48.2026 90.4799 48.521 89.7659 48.4461C89.3914 48.4068 89.1181 48.5404 88.6498 48.9919L88.0295 49.5898L90.7288 52.1708C93.1828 54.5172 93.4179 54.7931 93.3146 55.2045C93.1847 55.7219 92.6721 55.9522 92.222 55.6954C92.0532 55.5992 90.8731 54.4055 89.5993 53.0428C88.3256 51.68 87.2448 50.5651 87.1976 50.5651C87.1504 50.5651 86.0697 51.68 84.7959 53.0428C83.5222 54.4055 82.3421 55.5992 82.1733 55.6954C81.7238 55.9519 81.2105 55.722 81.0812 55.2065C80.9786 54.7979 81.2188 54.5165 83.6706 52.173L86.373 49.5898L85.9194 49.1662C85.5374 48.8094 85.2939 48.742 84.3729 48.7374C83.4482 48.7329 83.2089 48.666 82.82 48.3032C82.2031 47.7276 81.5531 46.4139 81.4258 45.4851C81.3344 44.8185 81.3774 44.6725 81.7854 44.2645C82.1861 43.8638 82.351 43.8127 83.0051 43.8864C84.078 44.0074 85.6144 44.8034 86.0222 45.4494C86.2915 45.8761 86.345 46.1907 86.2814 46.9723C86.2055 47.9033 86.2297 47.9813 86.7241 48.3972L87.247 48.8372L87.8227 48.2792C88.3108 47.8062 88.3983 47.6022 88.3971 46.94C88.3956 46.1813 88.4383 46.118 89.8846 44.7387C90.8412 43.8266 91.433 43.3778 91.5394 43.4842C91.6456 43.5903 91.3282 44.0667 90.6521 44.8161Z" fill="#F4B315"/>
<defs>
<filter id="filter0_d_2978_46412" x="0" y="0" width="177" height="132" filterUnits="userSpaceOnUse" color-interpolation-filters="sRGB">
<feFlood flood-opacity="0" result="BackgroundImageFix"/>
<feColorMatrix in="SourceAlpha" type="matrix" values="0 0 0 0 0 0 0 0 0 0 0 0 0 0 0 0 0 0 127 0" result="hardAlpha"/>
<feOffset dy="10"/>
<feGaussianBlur stdDeviation="10"/>
<feColorMatrix type="matrix" values="0 0 0 0 0.0823529 0 0 0 0 0.0352941 0 0 0 0 0.121569 0 0 0 0.1 0"/>
<feBlend mode="normal" in2="BackgroundImageFix" result="effect1_dropShadow_2978_46412"/>
<feBlend mode="normal" in="SourceGraphic" in2="effect1_dropShadow_2978_46412" result="shape"/>
</filter>
</defs>
</svg>
