<svg width="20" height="20" viewBox="0 0 20 20" fill="none" xmlns="http://www.w3.org/2000/svg">
<path d="M12.6827 5.45703H4.81602C4.58268 5.45703 4.36602 5.46536 4.16602 5.4737C2.19102 5.59036 1.66602 6.31536 1.66602 8.56536V9.0487C1.66602 9.50703 2.04102 9.88203 2.49935 9.88203H14.9993C15.4577 9.88203 15.8327 9.50703 15.8327 9.0487V8.56536C15.8327 6.08203 15.1993 5.45703 12.6827 5.45703Z" fill="#333333"/>
<path d="M2.49935 11.1328C2.04102 11.1328 1.66602 11.5078 1.66602 11.9661V14.3911C1.66602 16.8745 2.29935 17.4995 4.81602 17.4995H12.6827C15.1577 17.4995 15.8077 16.8995 15.8327 14.5245V11.9661C15.8327 11.5078 15.4577 11.1328 14.9993 11.1328H2.49935ZM5.79935 15.4661H4.37435C4.03268 15.4661 3.74935 15.1828 3.74935 14.8411C3.74935 14.4995 4.03268 14.2161 4.37435 14.2161H5.80768C6.14935 14.2161 6.43268 14.4995 6.43268 14.8411C6.43268 15.1828 6.14935 15.4661 5.79935 15.4661ZM10.4577 15.4661H7.59102C7.24935 15.4661 6.96602 15.1828 6.96602 14.8411C6.96602 14.4995 7.24935 14.2161 7.59102 14.2161H10.4577C10.7993 14.2161 11.0827 14.4995 11.0827 14.8411C11.0827 15.1828 10.8077 15.4661 10.4577 15.4661Z" fill="#333333"/>
<path d="M18.3333 11.1083V6.74167C18.3333 4.13333 16.8417 3 14.5917 3H7.15001C6.51668 3 5.95001 3.09167 5.45001 3.28333C5.05834 3.425 4.70834 3.63333 4.42501 3.90833C4.27501 4.05 4.39168 4.28333 4.60834 4.28333H13.6667C15.5417 4.28333 17.0583 5.8 17.0583 7.675V13.65C17.0583 13.8583 17.2833 13.975 17.4333 13.825C18.0083 13.2167 18.3333 12.325 18.3333 11.1083Z" fill="#333333"/>
</svg>
