<svg width="27" height="27" viewBox="0 0 27 27" fill="none" xmlns="http://www.w3.org/2000/svg">
<path fill-rule="evenodd" clip-rule="evenodd" d="M3.79876 0.0389448C1.9455 0.294251 0.493684 1.62368 0.105634 3.42068C0.00430744 3.88995 -0.00611688 4.14037 0.002309 5.89856C0.0104108 7.58346 0.0110589 7.60093 0.0688788 7.7079C0.350147 8.22818 1.05492 8.22369 1.3121 7.70001L1.3878 7.54587L1.40368 5.69602C1.41486 4.39486 1.42915 3.81012 1.45183 3.72465C1.62116 3.08647 1.84525 2.68369 2.26404 2.26492C2.68282 1.84615 3.08561 1.62206 3.72382 1.45274C3.80929 1.43006 4.39406 1.41577 5.69526 1.40459L7.54517 1.38871L7.69932 1.31302C8.22302 1.05585 8.22751 0.351096 7.70721 0.0698386C7.59986 0.0118317 7.58808 0.0114266 5.83029 0.0071058C4.4805 0.00381118 3.99917 0.0113456 3.79876 0.0389448ZM19.4142 0.0231738C19.2945 0.0595766 19.1869 0.126117 19.0985 0.218447C18.7703 0.561196 18.8701 1.10159 19.3007 1.31302L19.4548 1.38871L21.3047 1.40459C22.6059 1.41577 23.1907 1.43006 23.2762 1.45274C23.9144 1.62206 24.3172 1.84615 24.736 2.26492C25.1547 2.68369 25.3788 3.08647 25.5482 3.72465C25.5709 3.81012 25.5851 4.39486 25.5963 5.69602L25.6122 7.54587L25.6879 7.70001C25.9451 8.22369 26.6499 8.22818 26.9311 7.7079C26.9889 7.60093 26.9896 7.58346 26.9977 5.89856C27.0061 4.14037 26.9957 3.88995 26.8944 3.42068C26.5478 1.81558 25.3409 0.562627 23.7391 0.144886C23.222 0.0100223 23.0046 -0.00223795 21.1751 0.000273521C20.2438 0.00154276 19.4514 0.0118587 19.4142 0.0231738ZM7.81261 9.50587C7.69862 9.53895 7.48835 9.72917 7.41576 9.86484C7.35686 9.97497 7.35613 9.99063 7.35613 11.1645C7.35613 12.3312 7.35718 12.3547 7.41452 12.4608C7.59073 12.7867 7.95915 12.9327 8.26083 12.7962C8.41865 12.7247 8.51895 12.6277 8.60767 12.4608L8.67943 12.3258L8.68758 11.2235C8.69722 9.92218 8.69503 9.90686 8.46835 9.68156C8.27809 9.49247 8.0601 9.43406 7.81261 9.50587ZM14.013 9.50195C13.8791 9.54267 13.7738 9.61224 13.6797 9.7222C13.491 9.94267 13.5 9.79423 13.5 12.6866C13.5 15.2282 13.4987 15.2955 13.4466 15.4031C13.3556 15.591 13.2803 15.6172 12.7843 15.6342C12.3062 15.6504 12.2199 15.6761 12.0469 15.853C11.7893 16.1164 11.7845 16.5652 12.0365 16.8314C12.1785 16.9814 12.3514 17.0456 12.6493 17.0589C13.0098 17.0751 13.4107 17.031 13.6791 16.9456C14.1196 16.8055 14.5081 16.4713 14.7132 16.056C14.9287 15.6194 14.9178 15.7967 14.9178 12.7308V10.0033L14.8368 9.85645C14.7539 9.70605 14.5978 9.57195 14.4367 9.51254C14.3394 9.47667 14.1145 9.47106 14.013 9.50195ZM18.9012 9.5312C18.7424 9.60535 18.6425 9.70235 18.5544 9.8683L18.4826 10.0033L18.4744 11.092C18.4653 12.3046 18.4723 12.368 18.6394 12.5873C18.8009 12.7992 19.0729 12.8945 19.3197 12.8254C19.4673 12.7841 19.6645 12.6171 19.7463 12.4642C19.8052 12.3541 19.8059 12.3385 19.8059 11.1645C19.8059 9.99012 19.8052 9.97502 19.7462 9.86468C19.6747 9.73095 19.5476 9.59917 19.4329 9.53989C19.2953 9.46873 19.0438 9.46463 18.9012 9.5312ZM9.04384 18.7377C8.62012 18.8666 8.40793 19.3463 8.60221 19.7362C8.65677 19.8456 8.74165 19.9375 8.96285 20.1265C9.98935 21.0038 11.0813 21.5076 12.4063 21.7152C12.9548 21.8012 14.0452 21.8012 14.5937 21.7152C15.9187 21.5076 17.0106 21.0038 18.0371 20.1265C18.3839 19.8302 18.4695 19.6919 18.4685 19.4296C18.4671 19.0441 18.1924 18.75 17.8047 18.7189C17.5927 18.7019 17.4175 18.7775 17.185 18.9863C16.3511 19.7353 15.3413 20.1908 14.2029 20.3315C14.077 20.347 13.7607 20.3598 13.5 20.3598C13.2393 20.3598 12.923 20.347 12.7971 20.3315C11.6588 20.1908 10.6502 19.7358 9.815 18.9865C9.54643 18.7455 9.29011 18.6628 9.04384 18.7377ZM0.429085 18.9576C0.280309 19.0249 0.146494 19.1495 0.0688788 19.2931C0.0110589 19.4 0.0104108 19.4175 0.002309 21.1024C-0.00611688 22.8606 0.00430744 23.111 0.105634 23.5803C0.463734 25.2387 1.7614 26.5363 3.41984 26.8944C3.88912 26.9957 4.13955 27.0061 5.8978 26.9977C7.58276 26.9896 7.60024 26.9889 7.70721 26.9311C8.22751 26.6499 8.22302 25.9451 7.69932 25.6879L7.54517 25.6122L5.69526 25.5964C4.39406 25.5852 3.80929 25.5709 3.72382 25.5482C3.08561 25.3789 2.68282 25.1548 2.26404 24.736C1.84525 24.3173 1.62116 23.9145 1.45183 23.2763C1.42915 23.1908 1.41486 22.6061 1.40368 21.3049L1.3878 19.4551L1.3121 19.301C1.14674 18.9643 0.753022 18.8112 0.429085 18.9576ZM26.0761 18.9432C25.9109 19.0038 25.7701 19.1335 25.6879 19.301L25.6122 19.4551L25.5963 21.3049C25.5851 22.6061 25.5709 23.1908 25.5482 23.2763C25.3788 23.9145 25.1547 24.3173 24.736 24.736C24.3172 25.1548 23.9144 25.3789 23.2762 25.5482C23.1907 25.5709 22.6059 25.5852 21.3047 25.5964L19.4548 25.6122L19.3007 25.6879C18.777 25.9451 18.7725 26.6499 19.2928 26.9311C19.3998 26.9889 19.4172 26.9896 21.1022 26.9977C22.8604 27.0061 23.1109 26.9957 23.5802 26.8944C25.2386 26.5363 26.5363 25.2387 26.8944 23.5803C26.9957 23.111 27.0061 22.8606 26.9977 21.1024C26.9896 19.4175 26.9889 19.4 26.9311 19.2931C26.7598 18.9761 26.3942 18.8265 26.0761 18.9432Z" fill="#999999"/>
</svg>
