<svg width="24" height="24" viewBox="0 0 24 24" fill="none" xmlns="http://www.w3.org/2000/svg">
<path fill-rule="evenodd" clip-rule="evenodd" d="M11.5284 0.00620966C11.4961 0.0108071 11.3062 0.0263586 11.1064 0.0407372C9.14155 0.182131 7.25332 0.813831 5.54494 1.90126C4.96091 2.273 4.93348 2.2972 3.66698 3.55779C2.99855 4.22308 2.40877 4.82461 2.35638 4.89451C2.27573 5.00213 2.26171 5.03743 2.26502 5.12488C2.27278 5.3303 2.39996 5.45913 2.59517 5.45929C2.72607 5.45941 2.81429 5.40063 2.9301 5.23606C3.29782 4.71362 4.11352 3.84649 4.69525 3.35956C6.42717 1.90994 8.36871 1.0685 10.6844 0.763916C11.0548 0.715198 11.1859 0.710014 12.0324 0.710647C12.8751 0.711257 13.0093 0.716722 13.3564 0.764479C14.63 0.939674 15.7362 1.2588 16.7561 1.74521C17.0496 1.88512 17.1623 1.90422 17.2938 1.83622C17.4655 1.74737 17.5195 1.47647 17.395 1.32844C17.3183 1.23726 16.9482 1.0559 16.3811 0.831658C15.3266 0.414747 14.2718 0.162311 13.122 0.0516913C12.7689 0.0177267 11.6678 -0.0137047 11.5284 0.00620966ZM11.4815 1.47176C9.2135 1.59413 7.08059 2.41458 5.32772 3.83882C4.89016 4.19434 4.16626 4.92644 3.80644 5.37729C2.48508 7.03295 1.72445 8.88568 1.50491 10.9833C1.4519 11.4898 1.45176 12.4927 1.50463 12.9888C1.54574 13.3748 1.624 13.9052 1.66097 14.0485C1.70699 14.2269 1.72698 14.5944 1.70391 14.8383C1.65422 15.3638 1.46196 15.8278 1.12035 16.2467C0.941926 16.4655 0.91009 16.56 0.965673 16.7056C1.01617 16.8379 1.114 16.9101 1.26187 16.9243C1.41397 16.939 1.49755 16.8843 1.68568 16.647C2.18616 16.0157 2.4351 15.257 2.40108 14.4666C2.39358 14.2924 2.36646 14.0496 2.34081 13.9271C2.13104 12.9251 2.0915 11.6979 2.23539 10.6549C2.50055 8.73284 3.3351 6.92577 4.64569 5.43593C4.81882 5.23913 5.42119 4.65106 5.63285 4.47218C7.21483 3.13543 9.18295 2.33408 11.2778 2.17382C11.7214 2.13988 12.7264 2.15792 13.1202 2.2069C13.4737 2.25085 13.578 2.2193 13.6705 2.0404C13.7553 1.8764 13.6806 1.66187 13.5137 1.58955C13.3101 1.50138 12.1639 1.43493 11.4815 1.47176ZM14.9332 1.98775C14.8332 2.04875 14.7637 2.16594 14.7636 2.27368C14.7634 2.4765 14.8499 2.56334 15.1548 2.66633C18.3056 3.73054 20.7391 6.37333 21.5498 9.61114C21.7698 10.4899 21.9613 11.7689 22.059 13.0123C22.0789 13.266 22.0891 13.8316 22.0884 14.6542C22.0875 15.9421 22.073 16.2447 21.9684 17.1654C21.9471 17.3531 21.9373 17.5372 21.9466 17.5743C21.9559 17.6114 22.0038 17.682 22.053 17.7313C22.1345 17.8128 22.1537 17.8208 22.2683 17.8207C22.4174 17.8206 22.5265 17.7634 22.5818 17.6564C22.6454 17.5334 22.7297 16.7077 22.7829 15.6863C22.8133 15.1033 22.7992 13.5787 22.7587 13.0709C22.6609 11.845 22.5332 10.8862 22.3447 9.96298C21.7378 6.99042 19.9696 4.48809 17.3774 2.93355C16.7949 2.58426 16.0247 2.23005 15.3775 2.01383C15.1232 1.92885 15.038 1.92385 14.9332 1.98775ZM18.4919 2.19003C18.4012 2.26638 18.3503 2.36225 18.3503 2.45656C18.3503 2.61074 18.4024 2.67386 18.7382 2.92609C20.7923 4.4692 22.2097 6.53509 22.8852 8.97057C23.1835 10.0461 23.2599 10.6118 23.3268 12.2429C23.3321 12.3722 23.3436 12.4113 23.3912 12.4629C23.5545 12.6401 23.8129 12.6228 23.9473 12.4259C23.9973 12.3525 24 12.3262 24 11.9113C24 10.3293 23.6333 8.6427 22.9568 7.11305C22.1689 5.33169 20.9097 3.72609 19.3595 2.52632C18.8912 2.16388 18.8317 2.1286 18.6888 2.1286C18.5893 2.1286 18.5505 2.1407 18.4919 2.19003ZM11.165 2.95121C8.44014 3.22865 6.09079 4.60279 4.53071 6.83157C3.82944 7.83344 3.31836 9.05039 3.07589 10.2957C3.02682 10.5477 3.04185 10.6415 3.1483 10.748C3.2729 10.8726 3.45784 10.8861 3.59231 10.7803C3.67893 10.7121 3.71185 10.6352 3.75641 10.3969C4.30212 7.4796 6.46287 5.00684 9.30129 4.05138C12.7921 2.87629 16.6119 4.0894 18.7802 7.06168C19.632 8.22924 20.0713 9.34622 20.3641 11.0889C20.4401 11.5413 20.4558 11.5965 20.5262 11.6599C20.7008 11.8173 20.9725 11.7619 21.079 11.5473C21.1306 11.4433 21.1275 11.413 20.984 10.608C20.6055 8.48587 19.759 6.8748 18.2624 5.42838C17.0593 4.26553 15.4532 3.42901 13.7724 3.08984C13.1858 2.97145 12.909 2.94586 12.1262 2.93763C11.7136 2.93329 11.281 2.93941 11.165 2.95121ZM11.7628 4.37092C11.1704 4.41727 10.9854 4.43653 10.7434 4.47706C10.1127 4.58271 9.43679 4.7838 8.93793 5.01419C8.67842 5.13402 8.63317 5.18816 8.63317 5.37879C8.63317 5.52014 8.63816 5.53398 8.71815 5.61401C8.85546 5.75139 8.953 5.74996 9.30622 5.60531C10.0387 5.30539 10.7112 5.14244 11.4698 5.08118C11.8954 5.04679 12.5962 5.06954 13.0053 5.13104C14.1796 5.3076 15.3088 5.78955 16.2379 6.51074C16.5431 6.74765 16.6827 6.77061 16.8499 6.61141C16.9637 6.50314 16.989 6.39121 16.9328 6.24421C16.8998 6.1577 16.852 6.10797 16.6546 5.95518C15.5287 5.08362 14.1243 4.5301 12.724 4.40601C12.4013 4.37744 11.9092 4.35947 11.7628 4.37092ZM11.2471 5.8713C9.12974 6.16429 7.41848 7.37738 6.47851 9.2516C6.04256 10.1209 5.83174 11.0191 5.83174 12.0074C5.83174 12.476 5.86496 12.8074 5.96063 13.2938C5.99235 13.455 6.0308 13.6872 6.04603 13.8098C6.07503 14.0428 6.08629 14.8492 6.06617 15.2533C6.053 15.5179 6.07442 15.5776 6.21395 15.6653C6.32083 15.7324 6.53325 15.7181 6.61891 15.6379C6.6525 15.6065 6.69006 15.5621 6.70236 15.5392C6.74466 15.4607 6.77051 15.1107 6.77119 14.6073C6.77194 14.0456 6.73265 13.6159 6.63837 13.1552C6.3811 11.898 6.52837 10.7191 7.08549 9.57595C7.65731 8.40251 8.70172 7.42485 9.91081 6.93112C10.7365 6.59396 11.6473 6.45557 12.4929 6.53882C14.7836 6.76426 16.6663 8.34002 17.2828 10.5477C17.4314 11.0799 17.5991 12.1617 17.6866 13.153C17.7435 13.7969 17.7433 15.4428 17.6863 16.0733C17.642 16.5626 17.5716 17.1556 17.5197 17.4751C17.4612 17.8356 17.5682 18.0082 17.8503 18.0084C17.9832 18.0085 18.0873 17.9442 18.1493 17.8239C18.2094 17.7072 18.3464 16.6155 18.3955 15.8622C18.5055 14.1757 18.3766 12.2993 18.0435 10.737C17.7427 9.32629 16.9764 8.079 15.8653 7.19165C15.0057 6.50513 14.0132 6.06826 12.9115 5.89147C12.5687 5.83644 11.585 5.82453 11.2471 5.8713ZM7.23435 6.05177C6.98825 6.20241 6.33422 6.85968 5.97224 7.32012C4.66911 8.9777 4.10958 11.2372 4.48713 13.3172C4.61829 14.0399 4.6211 14.0663 4.62197 14.5839C4.62258 14.9502 4.61142 15.1649 4.58113 15.3685C4.38754 16.6705 3.75852 17.8367 2.78182 18.7044C2.62567 18.8432 2.48848 18.9815 2.47694 19.0119C2.44155 19.105 2.45329 19.2587 2.50191 19.3385C2.59188 19.4861 2.82263 19.541 2.96681 19.4491C3.10674 19.3598 3.4976 19.0005 3.70451 18.7708C4.55052 17.8317 5.04685 16.7921 5.26107 15.5104C5.29605 15.3012 5.304 15.1279 5.30313 14.5956C5.30196 13.8977 5.3111 13.9877 5.15321 13.1178C5.00137 12.2812 5.0394 11.2472 5.25472 10.3578C5.59277 8.96147 6.35801 7.71142 7.46628 6.74511C7.65342 6.58195 7.71191 6.5163 7.73306 6.4457C7.8254 6.13727 7.50636 5.88528 7.23435 6.05177ZM1.41662 6.44429C1.30363 6.54358 0.986303 7.20955 0.757149 7.82846C0.274318 9.13247 0.0446482 10.3252 0.00289639 11.7457C-0.0171942 12.4289 0.0691461 13.4792 0.202466 14.1734L0.22047 14.2672L0.256666 14.184C0.359135 13.9484 0.640051 13.8851 0.824406 14.056C0.895837 14.1223 0.895415 14.1249 0.850123 13.8881C0.830783 13.787 0.791328 13.5248 0.762447 13.3055C0.715514 12.9492 0.709935 12.8068 0.710146 11.9685C0.71038 10.9834 0.718937 10.8628 0.84091 10.1272C1.01218 9.0943 1.33811 8.07215 1.80319 7.1093C1.96636 6.77153 1.98727 6.67733 1.92716 6.55059C1.87064 6.43141 1.77084 6.37437 1.6187 6.37427C1.5163 6.3742 1.48346 6.38558 1.41662 6.44429ZM11.4388 7.31327C10.0374 7.5036 8.85117 8.2324 8.08346 9.37482C7.58122 10.1222 7.32091 10.933 7.29221 11.8395C7.2778 12.2948 7.30187 12.5869 7.38859 13.0086C7.50336 13.5667 7.53056 13.8685 7.53049 14.5839C7.53042 15.3003 7.50186 15.6243 7.38854 16.1945C7.0365 17.9655 6.14363 19.5715 4.84714 20.7656C4.71176 20.8903 4.58254 21.0254 4.55996 21.0657C4.46748 21.2312 4.54419 21.4523 4.72127 21.5307C4.87382 21.5982 4.98095 21.5738 5.14761 21.4337C5.36045 21.2547 5.96853 20.6225 6.18594 20.3541C7.0281 19.3145 7.63612 18.1037 7.95274 16.8357C8.14626 16.0606 8.19971 15.6508 8.21582 14.8184C8.23295 13.9338 8.20102 13.547 8.0445 12.7425C7.84204 11.7022 8.05781 10.6676 8.67066 9.74015C8.90572 9.38441 9.37828 8.91057 9.7326 8.67535C10.4606 8.19201 11.1029 7.99517 12.0067 7.97844C12.5187 7.96897 12.5453 7.96226 12.6312 7.82133C12.7241 7.66889 12.6719 7.442 12.5211 7.34301C12.4654 7.30647 12.3973 7.30018 12.0218 7.29692C11.7826 7.29486 11.5203 7.30222 11.4388 7.31327ZM17.7816 7.3926C17.6205 7.45061 17.5532 7.54727 17.5532 7.72085C17.5532 7.81057 17.5729 7.8556 17.6828 8.01705C18.2654 8.87321 18.6154 9.71078 18.819 10.7365C19.0502 11.9011 19.1635 12.9831 19.186 14.2437C19.2313 16.7728 18.8373 19.128 17.9721 21.4996C17.8253 21.9019 17.8252 21.9631 17.9711 22.1195C18.0944 22.2519 18.325 22.2501 18.4531 22.1158C18.5752 21.9879 19.0352 20.5982 19.2732 19.6387C19.6971 17.9293 19.88 16.4338 19.883 14.6542C19.8849 13.4961 19.8281 12.6725 19.6728 11.6049C19.4655 10.1801 19.2412 9.40407 18.7734 8.49296C18.5504 8.05878 18.1648 7.46743 18.0746 7.42129C17.9704 7.36804 17.8755 7.35875 17.7816 7.3926ZM13.9694 7.87814C13.895 7.91584 13.855 7.95625 13.8234 8.02585C13.7241 8.2447 13.7816 8.36636 14.0702 8.54761C14.8635 9.04587 15.4161 9.70142 15.7486 10.5388C15.8458 10.7838 15.9023 10.9941 15.9826 11.4093C16.4443 13.7992 16.3696 16.3769 15.7694 18.7693C15.4092 20.2048 14.83 21.6619 14.1046 22.9577C13.9167 23.2933 13.8879 23.3596 13.8875 23.4563C13.8865 23.7155 14.1784 23.8778 14.4048 23.7439C14.4936 23.6915 14.6704 23.4023 14.9728 22.815C16.1369 20.5539 16.7943 18.1748 16.9459 15.6746C16.9814 15.0879 16.9601 13.5062 16.91 13.0123C16.8242 12.1671 16.6874 11.2928 16.5671 10.8209C16.2661 9.64027 15.4839 8.59138 14.4332 7.95954C14.212 7.82647 14.1076 7.80815 13.9694 7.87814ZM11.4815 8.77933C11.0366 8.8497 10.5263 9.05351 10.151 9.31066C9.90359 9.48023 9.52377 9.85288 9.34703 10.0995C9.07941 10.4729 8.80866 11.1171 8.80304 11.3938C8.79882 11.6009 8.93622 11.7455 9.13719 11.7455C9.2537 11.7455 9.37172 11.6864 9.42723 11.6002C9.44631 11.5705 9.47908 11.4777 9.50004 11.3938C9.73684 10.4462 10.4728 9.72267 11.4307 9.49576C12.7614 9.18055 14.1431 10.0182 14.4818 11.3455C14.5451 11.5935 14.6595 12.2742 14.7151 12.7345C14.7718 13.2025 14.8032 13.6318 14.8245 14.2255C14.8423 14.7244 14.8563 14.7743 15.0036 14.8669C15.063 14.9042 15.1082 14.9128 15.2068 14.9054C15.3207 14.897 15.3433 14.8857 15.4271 14.7959L15.5205 14.6957L15.5061 14.0944C15.4846 13.1926 15.369 12.1635 15.1982 11.3519C14.9154 10.0083 13.8568 8.99407 12.513 8.77907C12.2435 8.73596 11.7549 8.73608 11.4815 8.77933ZM11.6221 10.2321C11.2059 10.3243 10.8294 10.5617 10.5793 10.8895C10.3307 11.2153 10.2175 11.5229 10.1993 11.9216C10.1891 12.1467 10.1968 12.2245 10.2597 12.5314C10.3845 13.1408 10.4291 13.5828 10.4434 14.3515C10.4611 15.3026 10.4098 15.9466 10.2519 16.7548C10.1927 17.0575 10.1959 17.1299 10.2736 17.2485C10.369 17.3943 10.6463 17.4195 10.777 17.2942C10.8652 17.2096 10.8841 17.158 10.9405 16.8474C11.103 15.9526 11.1403 15.5398 11.1409 14.6308C11.1415 13.7006 11.0941 13.1819 10.9288 12.3105C10.8755 12.0298 10.872 11.9785 10.8959 11.8367C10.9347 11.6067 11.0529 11.3769 11.2165 11.2138C11.3812 11.0495 11.5643 10.9557 11.8178 10.9057C11.9888 10.872 12.0213 10.8721 12.1853 10.906C12.4369 10.958 12.6163 11.0519 12.7845 11.2195C12.9677 11.4021 13.0424 11.5579 13.1118 11.9021C13.3666 13.1669 13.4353 14.7002 13.297 16.0381C13.0301 18.6194 12.0711 21.0693 10.5114 23.1536C10.2945 23.4436 10.2859 23.4596 10.286 23.5758C10.2861 23.7186 10.3446 23.8297 10.4478 23.8831C10.5389 23.9303 10.7186 23.9296 10.7995 23.8818C10.8345 23.8611 10.9743 23.6948 11.1102 23.5124C12.5725 21.5483 13.5304 19.25 13.8978 16.8239C14.0855 15.5847 14.1104 14.1302 13.965 12.9004C13.9025 12.3721 13.8113 11.7982 13.7535 11.5697C13.6553 11.1816 13.4282 10.8268 13.1263 10.5894C12.9559 10.4556 12.6726 10.3101 12.4778 10.2564C12.2812 10.2023 11.8161 10.1891 11.6221 10.2321ZM11.8908 11.6768C11.7946 11.7048 11.6928 11.816 11.6698 11.9183C11.6578 11.9716 11.6628 12.065 11.6837 12.1731C11.9581 13.5984 11.9888 15.1173 11.7721 16.5542C11.4312 18.8155 10.4122 21.0521 8.92271 22.809C8.69508 23.0775 8.64508 23.1592 8.64501 23.2627C8.64492 23.4425 8.77523 23.5877 8.95481 23.608C9.13443 23.6282 9.18267 23.5904 9.56142 23.1329C11.1033 21.2701 12.1317 18.9403 12.4757 16.5307C12.5657 15.8998 12.5857 15.637 12.6 14.8977C12.6183 13.9512 12.5609 13.1768 12.4066 12.2876C12.3321 11.8581 12.2939 11.7686 12.1568 11.7022C12.0454 11.6483 12.0028 11.6442 11.8908 11.6768ZM3.11283 12.0448C3.06796 12.0673 3.00612 12.1227 2.97541 12.1679C2.92173 12.2468 2.92013 12.2612 2.93375 12.5432C2.95197 12.92 3.0011 13.3019 3.09373 13.7863C3.15958 14.1308 3.16774 14.2198 3.16792 14.5956C3.16811 14.9319 3.15766 15.0739 3.11665 15.2932C2.95291 16.1689 2.5205 16.9626 1.88602 17.5521C1.78043 17.6502 1.68124 17.7535 1.66559 17.7815C1.64993 17.8096 1.63675 17.8875 1.63628 17.9547C1.63555 18.0644 1.64446 18.0863 1.72358 18.1695C1.78322 18.2323 1.84077 18.2677 1.90168 18.2791C2.06915 18.3106 2.15104 18.2641 2.45209 17.9666C3.59508 16.8371 4.07814 15.2594 3.7702 13.6619C3.68997 13.2457 3.63948 12.8647 3.61475 12.489C3.59597 12.2032 3.56012 12.1229 3.4175 12.0471C3.31519 11.9927 3.21783 11.992 3.11283 12.0448ZM9.0911 12.9361C8.98205 12.9911 8.91667 13.1092 8.92011 13.2449C8.92161 13.304 8.93941 13.5204 8.95968 13.7256C9.00671 14.2019 9.00697 14.9801 8.96027 15.4767C8.7856 17.334 8.12744 19.0422 7.01287 20.531C6.73561 20.9013 6.50772 21.1636 6.1361 21.54C5.95704 21.7214 5.79951 21.8988 5.78598 21.9344C5.72808 22.0868 5.78268 22.246 5.93048 22.3555C6.00824 22.4131 6.16601 22.4177 6.26544 22.3652C6.35145 22.3198 6.91105 21.7571 7.15744 21.4683C8.38913 20.0243 9.22965 18.2243 9.54693 16.3511C9.67148 15.6157 9.71919 14.8068 9.67943 14.1045C9.64025 13.4123 9.60204 13.1289 9.53525 13.0351C9.43944 12.9005 9.24679 12.8575 9.0911 12.9361ZM20.8223 12.9267C20.783 12.9446 20.7231 12.9921 20.6892 13.0324L20.6276 13.1057L20.6407 14.1908C20.6541 15.2862 20.6391 15.754 20.5643 16.5776C20.4701 17.6139 20.2896 18.6849 20.0346 19.7197C19.9576 20.0323 19.9207 20.2265 19.9289 20.277C19.9542 20.4329 20.1075 20.5652 20.2628 20.5652C20.3591 20.5652 20.5141 20.4819 20.5589 20.4061C20.6137 20.3132 20.7888 19.6014 20.9271 18.9096C21.2708 17.189 21.41 15.3532 21.326 13.6456C21.2994 13.1039 21.2874 13.0542 21.1602 12.9594C21.0815 12.9006 20.9152 12.8846 20.8223 12.9267ZM0.895321 14.45C0.785304 14.6784 0.520047 14.7257 0.325612 14.5516C0.271576 14.5032 0.27031 14.5031 0.28243 14.5487C0.289298 14.5745 0.313234 14.6748 0.335622 14.7715C0.383094 14.9767 0.431855 15.0562 0.542576 15.1087C0.702199 15.1845 0.892203 15.1349 0.978684 14.995C1.03739 14.8999 1.03884 14.751 0.983302 14.5206L0.942629 14.3518L0.895321 14.45ZM14.9539 16.0931C14.853 16.1306 14.771 16.2258 14.7436 16.3376C14.7318 16.3858 14.7042 16.5624 14.6822 16.7301C14.3851 18.9994 13.4782 21.3852 12.1767 23.3213C12.0497 23.5103 12.0347 23.5451 12.0336 23.6538C12.0323 23.7846 12.0745 23.8641 12.192 23.9518C12.2781 24.0161 12.4662 24.0161 12.5541 23.9517C12.7908 23.7785 13.7075 22.1725 14.159 21.1399C14.7117 19.8761 15.1216 18.4584 15.3358 17.0702C15.4305 16.4562 15.4347 16.3703 15.3757 16.2545C15.2991 16.1044 15.1142 16.0336 14.9539 16.0931ZM5.78997 16.9216C5.69554 16.9681 5.64924 17.0343 5.56266 17.2461C5.17808 18.1872 4.54918 19.0753 3.77374 19.7725C3.61529 19.915 3.47024 20.0613 3.4514 20.0978C3.33992 20.3135 3.51129 20.5885 3.75704 20.5884C3.88054 20.5884 3.9678 20.5324 4.2782 20.2537C4.96834 19.6341 5.56447 18.8388 6.00039 17.9562C6.29354 17.3626 6.33771 17.1693 6.21379 17.0219C6.10141 16.8883 5.93658 16.8493 5.78997 16.9216ZM9.87564 18.5107C9.76464 18.5601 9.71537 18.634 9.59264 18.935C9.1077 20.1245 8.27918 21.4103 7.40106 22.3361C7.16761 22.5823 7.14452 22.6192 7.14464 22.746C7.14485 23.0036 7.41362 23.1788 7.63389 23.0648C7.76944 22.9947 8.387 22.2959 8.77439 21.7743C9.03041 21.4296 9.30284 21.0175 9.51176 20.659C9.87724 20.032 10.3562 18.9923 10.3562 18.8262C10.3562 18.703 10.2844 18.5902 10.1678 18.5304C10.0512 18.4706 9.97715 18.4656 9.87564 18.5107ZM17.348 19.1498C17.2478 19.1712 17.1402 19.3011 17.0985 19.451C16.8109 20.4829 16.4533 21.4679 16.0593 22.3127C15.8346 22.7945 15.8153 22.8552 15.8466 22.9788C15.889 23.1458 16.0879 23.2708 16.2475 23.2307C16.3992 23.1926 16.4573 23.1193 16.6317 22.746C17.0414 21.8692 17.441 20.8006 17.6931 19.9084C17.799 19.5334 17.8085 19.4152 17.7418 19.3057C17.6625 19.1756 17.5099 19.1152 17.348 19.1498Z" fill="black"/>
</svg>
