<svg width="168" height="152" viewBox="0 0 168 152" fill="none" xmlns="http://www.w3.org/2000/svg">
<path d="M2.7297 9.68982C2.7297 5.87399 5.79425 2.76898 9.56035 2.76898H46V0H9.56035C4.28908 0 0 4.34572 0 9.68659V40H2.73289V9.68659L2.7297 9.68982Z" fill="black"/>
<path d="M46 149.234H9.56287C5.79703 149.234 2.7327 146.129 2.7327 142.313V112H0V142.313C0 147.654 4.28878 152 9.55968 152H45.9968V149.231L46 149.234Z" fill="black"/>
<path d="M165.267 9.68715V40H168V9.68715C168 4.3443 163.709 0 158.439 0H122V2.76868H158.439C162.205 2.76868 165.271 5.87454 165.271 9.68715" fill="black"/>
<path d="M165.271 112V142.313C165.271 146.129 162.205 149.231 158.439 149.231H122V152H158.439C163.712 152 168 147.652 168 142.313V112H165.267H165.271Z" fill="black"/>
<path d="M145 76.5878C145 68.246 143.419 60.288 140.258 52.7137C137.097 45.1459 132.726 38.4985 127.145 32.7747C121.564 27.0542 114.962 22.4914 107.336 19.0961C100.34 15.9806 92.7917 14.309 84.7001 14.052C84.2058 14.0293 83.7115 14 83.2106 14C83.113 14 83.022 14.0098 82.9244 14.0098C82.7813 14.0098 82.6447 14 82.5016 14H82.3162C73.3888 14 65.1119 15.6976 57.4821 19.0961C49.8556 22.4946 43.2828 27.0542 37.7638 32.7747C32.2447 38.4953 27.9062 45.1459 24.7418 52.7137C21.5806 60.2847 20 68.2428 20 76.5878C20 84.9328 21.5806 92.8909 24.7418 100.462C27.903 108.033 32.274 114.677 37.8548 120.401C43.4357 126.121 50.0377 130.655 57.6642 133.992C65.2908 137.328 73.5677 139 82.4984 139C82.5114 139 82.5276 139 82.5439 139C83.7342 139 84.9148 138.964 86.0856 138.902C89.3866 138.727 92.5999 138.307 95.7285 137.647C98.9222 136.974 102.025 136.041 105.036 134.86C105.745 134.584 106.448 134.297 107.144 133.992C110.416 132.561 113.499 130.905 116.397 129.035C119.024 127.338 121.493 125.455 123.812 123.396C124.891 122.437 125.945 121.442 126.957 120.401C129.448 117.848 131.702 115.106 133.721 112.186C136.229 108.563 138.375 104.654 140.161 100.462C143.384 92.8909 144.997 84.9361 144.997 76.5878" fill="black"/>
<path d="M117.069 125.055C117.011 124.27 116.967 123.909 116.957 123.544C116.594 109.452 116.245 95.3594 115.869 81.2669C115.791 78.3664 115.73 75.4561 115.452 72.5718C115.001 67.8809 114.407 63.2029 113.804 58.5282C113.61 57.0405 114.173 56.015 115.296 55.0124C118.819 51.8677 120.941 47.9938 121.653 43.4656C122.369 38.8918 121.989 34.3962 120.395 30.0177C119.514 27.5957 118.171 25.4211 115.997 23.7934C112.949 21.5082 109.202 21.3259 106.272 23.7153C104.665 25.0272 103.183 26.7395 102.356 28.556C101.268 30.952 100.586 33.5986 100.254 36.1964C99.4127 42.7169 100.532 48.9672 105.598 53.7819C108.063 56.1225 108.473 58.4533 107.998 61.3311C107.876 62.0798 107.825 62.835 107.734 63.587C107.249 67.513 106.456 71.4292 106.33 75.3649C105.771 92.6933 105.401 110.028 104.967 127.36C104.96 127.601 104.957 127.825 104.95 128.034V135C109.216 133.47 113.261 131.543 117.035 129.274" fill="#F4B315"/>
<path d="M123.796 123C127.37 119.809 130.565 116.194 133.306 112.251V107.664C133.165 106.947 133.153 106.288 133.169 105.629C133.283 101.146 132.904 96.7112 132.198 92.2862C131.669 88.9432 131.375 85.5614 130.979 82.1957C130.836 80.9813 131.177 80.0187 132.055 79.0982C134.946 76.0652 136.203 72.3605 135.973 68.1324C135.654 62.2668 135.316 56.4012 134.978 50.5355C134.837 48.0678 134.678 45.6001 134.528 43.1034H133.044V63.6783H131.244V43C130.536 43.0323 129.997 43.0581 129.323 43.0904V63.6492H127.571V43.0969H125.647V63.6783H123.902V43.0872H122.51C122.469 43.4683 122.421 43.7881 122.402 44.1111C121.942 52.0827 121.499 60.0543 121.03 68.0226C120.768 72.5026 122.236 76.2816 125.22 79.531C125.657 80.009 125.985 80.8198 125.966 81.4658C125.906 83.5685 125.756 85.6841 125.465 87.7674C124.728 93.0452 123.688 98.2778 123.803 103.659C123.902 108.291 123.828 112.929 123.812 117.561" fill="#F4B315"/>
<path d="M97.2657 133.459C97.2657 132.69 97.2657 132.196 97.2657 131.701C97.2565 122.228 97.2349 112.755 97.2472 103.282C97.2472 101.301 96.7948 99.4884 95.7576 97.8277C95.4313 97.3043 95.1174 96.7647 94.8435 96.2057C94.0094 94.503 94.0063 92.8455 95.139 91.2623C95.8099 90.3254 96.5147 89.4045 97.1057 88.4126C97.4719 87.7955 97.8105 87.0782 97.8812 86.3739C98.543 79.6922 99.3155 73.017 99.7156 66.3192C100.303 56.51 100.07 46.7072 98.1613 37.0272C96.7548 29.89 94.4834 23.1114 90.233 17.189C89.9406 16.7819 89.6174 16.3942 89.3097 16C89.0357 16.8207 89.0357 17.5153 89.0357 18.21C88.9896 41.5376 88.9557 64.8685 88.8788 88.1962C88.8695 91.3851 89.2543 94.629 88.0878 97.734C87.937 98.1379 88.0262 98.6419 88.0262 99.1007C88.0262 110.451 88.0324 121.805 88.0355 133.155V134.664H88.0324V139C91.1871 138.822 94.2679 138.389 97.2595 137.733" fill="#F4B315"/>
<path d="M82 134.524V127.461C56.6115 127.649 33.609 107.645 31.6758 80.1947C30.7767 67.4225 34.0971 55.7922 41.8428 45.6714C51.9423 32.4731 65.4651 25.9504 81.8972 25.4721V14.0078C51.2904 13.497 21.5217 38.2378 20.0542 73.9647C18.6123 109.054 46.1363 138.584 81.2389 139C81.4926 139 81.7431 139 81.9936 139" fill="#F4B315"/>
<path d="M80 62H69V73H80V62ZM71.0192 64.0224H77.9776V70.9808H71.0192V64.0224Z" fill="#F4B315"/>
<path d="M80 80H69V91H80V80ZM71.0224 82.0224H77.9808V88.9809H71.0224V82.0224Z" fill="#F4B315"/>
<path d="M46 72V61H35.6385C35.4116 61.645 35.1977 62.2932 35 62.9381V72H46ZM43.9776 69.9776H37.0191V63.0192H43.9776V69.9776Z" fill="#F4B315"/>
<path d="M69 124.277C70.0242 124.546 71.0613 124.786 72.1179 125H80V114H69V124.277ZM71.0224 116.022H77.9808V122.981H71.0224V116.022Z" fill="#F4B315"/>
<path d="M46.7493 44.3156H44.624C44.178 44.8262 43.7385 45.3562 43.3088 45.8959V48.3227H41.4886C41.3049 48.5877 41.1212 48.8592 40.9409 49.1306H42.8398V51.8839H39.2059C38.9238 52.3589 38.6483 52.8339 38.3827 53.309V58.124H35.9852C35.8179 58.5053 35.6506 58.8866 35.4965 59.2679H47.3331V74.5013H32.0462C32.0036 75.432 31.9904 76.3659 32.0068 77.2998H47.3167V92.5364H35.0373C35.4407 93.6061 35.8868 94.6725 36.3722 95.7421V93.6739H39.1665V96.4272H36.687C36.8838 96.8441 37.0904 97.2642 37.3003 97.681H43.2924V100.434H38.7795C38.914 100.67 39.0419 100.906 39.1829 101.145C39.2026 101.178 39.2223 101.21 39.242 101.245H42.8234V103.999H40.9704C41.8559 105.32 42.7874 106.574 43.7549 107.767V102.622H46.5492V110.239H45.9064C46.2672 110.63 46.6345 111.011 47.0084 111.383H47.32V111.693C47.8841 112.249 48.4613 112.785 49.0517 113.309V111.851H51.846V115.603C52.3839 116.007 52.9283 116.398 53.4826 116.776V112.51H56.2769V118.544C58.0513 119.578 59.9011 120.496 61.8197 121.297V117.571H64.6141V122.367C65.2536 122.59 65.903 122.8 66.559 123V111.234H82V92.5364H66.7229V77.2998H82V74.7857H66.7393V59.5491H82V40.4217H66.7393V30C66.5032 30.0743 66.2638 30.1486 66.0276 30.2262V37.3032H63.2333V31.2377C61.8 31.8064 60.3701 32.4495 58.9532 33.1701V41.5559H65.0568V44.3092H56.1622V34.7083C55.6144 35.0347 55.0667 35.374 54.5256 35.7263V37.6264H51.8132C51.2097 38.082 50.6096 38.5506 50.0192 39.0418H51.1048V41.7951H48.3104V40.538C47.7857 41.0195 47.2675 41.5172 46.7591 42.031V44.3092L46.7493 44.3156ZM39.4846 93.6739H46.7329V96.4272H39.4846V93.6739ZM46.7919 100.318H43.9976V97.5647H46.7919V100.318ZM78.6973 45.8054H81.4916V48.5586H78.6973V45.8054ZM75.0666 41.5624H77.861V44.3156H75.0666V41.5624ZM66.7393 41.7369H69.5337V52.6239H72.8429V46.3838H75.6373V55.3772H66.7393V41.7369ZM78.6809 97.9169H81.4752V100.67H78.6809V97.9169ZM75.0502 93.6739H77.8446V96.4272H75.0502V93.6739ZM66.7229 93.8484H69.5173V104.735H72.8266V98.4954H75.6209V107.489H66.7229V93.8484ZM59.6616 117.571H56.8673V114.818H59.6616V117.571ZM59.6616 114.045H56.8673V106.429H59.6616V114.045ZM60.5701 111.981V100.434H58.9335V105.298H56.1392V97.681H63.3645V111.981H60.5701ZM64.6141 117.144H61.8197V114.391H64.6141V117.144ZM65.0372 96.4272H56.1392V83.5043H54.5026V89.7444H51.7083V80.7511H58.9565V83.5043H58.9303V93.6739H65.0339V96.4272H65.0372ZM48.2875 91.1598H51.0818V93.9131H48.2875V91.1598ZM51.0818 102.192H48.2875V94.5755H51.0818V102.192ZM48.2875 85.2914H51.0818V88.0446H48.2875V85.2914ZM48.2875 77.303H51.0818V84.9197H48.2875V77.303ZM49.0681 71.7513H51.8624V74.5045H49.0681V71.7513ZM60.7472 71.7513V74.5045H53.499V60.3957H56.2934V71.7513H60.7472ZM59.678 65.4595H56.8837V62.7062H59.678V65.4595ZM56.8837 54.3172H59.678V61.9339H56.8837V54.3172ZM64.6272 74.5045H61.8328V71.7513H64.6272V74.5045ZM61.8328 65.4595H64.6272V71.328H61.8328V65.4595ZM62.374 89.3082H59.5797V86.5549H62.374V89.3082ZM58.9532 80.0563H51.705V77.303H58.9532V80.0563ZM51.8559 67.3564H49.0615V59.7397H51.8559V67.3564ZM51.705 97.3805H54.4993V100.134H51.705V97.3805ZM66.0047 93.5511H63.2103V90.7979H66.0047V93.5511ZM66.0047 89.4212H63.2103V81.8046H66.0047V89.4212ZM62.3904 37.1966H59.5961V34.4433H62.3904V37.1966ZM63.2267 38.6863H66.0211V41.4396H63.2267V38.6863ZM66.0047 80.0563H63.2103V77.303H66.0047V80.0563ZM64.6239 65.0362H61.8296V62.2829H64.6239V65.0362ZM56.1523 45.5695H63.3776V59.869H60.5833V48.3227H58.9467V53.1894H56.1523V45.5727V45.5695ZM51.7214 45.2657H54.5157V48.019H51.7214V45.2657ZM48.2973 42.464H51.0917V50.0807H48.2973V42.464ZM47.6643 50.5072H55.3947V58.124H47.6643V50.5072ZM47.6479 102.619H55.3783V110.235H47.6479V102.619ZM46.5623 58.124H43.768V50.5072H46.5623V58.124ZM46.8018 48.2032H44.0074V45.4499H46.8018V48.2032Z" fill="#F4B315"/>
<path d="M46 80H35V90.1833C35.0843 90.4555 35.1718 90.7278 35.2593 91H46V80ZM43.9776 88.9776H37.0191V82.0192H43.9776V88.9776Z" fill="#F4B315"/>
<path d="M80 28C76.5905 28.0585 72.8471 28.5323 69 29.5108V38H80V28ZM77.9776 36.0831H71.0192V29.4769H77.9776V36.0831Z" fill="#F4B315"/>
</svg>
