<svg width="34" height="34" viewBox="0 0 34 34" fill="none" xmlns="http://www.w3.org/2000/svg">
<g filter="url(#filter0_d_1601_16522)">
<circle cx="17" cy="17" r="16" fill="white"/>
</g>
<path d="M23.1163 19.0763L22.283 17.693C22.108 17.3846 21.9496 16.8013 21.9496 16.4596V14.3513C21.9496 12.393 20.7996 10.7013 19.1413 9.90964C18.708 9.14297 17.908 8.66797 16.9913 8.66797C16.083 8.66797 15.2663 9.15964 14.833 9.93464C13.208 10.743 12.083 12.418 12.083 14.3513V16.4596C12.083 16.8013 11.9246 17.3846 11.7496 17.6846L10.908 19.0763C10.5746 19.6346 10.4996 20.2513 10.708 20.818C10.908 21.3763 11.383 21.8096 11.9996 22.018C13.6163 22.568 15.3163 22.8346 17.0163 22.8346C18.7163 22.8346 20.4163 22.568 22.033 22.0263C22.6163 21.8346 23.0663 21.393 23.283 20.818C23.4996 20.243 23.4413 19.6096 23.1163 19.0763Z" fill="#F4B315"/>
<path d="M19.3587 23.6763C19.0087 24.643 18.0837 25.3346 17.0004 25.3346C16.3421 25.3346 15.6921 25.068 15.2337 24.593C14.9671 24.343 14.7671 24.0096 14.6504 23.668C14.7587 23.6846 14.8671 23.693 14.9837 23.7096C15.1754 23.7346 15.3754 23.7596 15.5754 23.7763C16.0504 23.818 16.5337 23.843 17.0171 23.843C17.4921 23.843 17.9671 23.818 18.4337 23.7763C18.6087 23.7596 18.7837 23.7513 18.9504 23.7263C19.0837 23.7096 19.2171 23.693 19.3587 23.6763Z" fill="#F4B315"/>
<g filter="url(#filter1_d_1601_16522)">
<circle cx="21.5" cy="11.5" r="2.5" fill="#FF3B30"/>
</g>
<defs>
<filter id="filter0_d_1601_16522" x="0" y="0" width="34" height="34" filterUnits="userSpaceOnUse" color-interpolation-filters="sRGB">
<feFlood flood-opacity="0" result="BackgroundImageFix"/>
<feColorMatrix in="SourceAlpha" type="matrix" values="0 0 0 0 0 0 0 0 0 0 0 0 0 0 0 0 0 0 127 0" result="hardAlpha"/>
<feOffset/>
<feGaussianBlur stdDeviation="0.5"/>
<feComposite in2="hardAlpha" operator="out"/>
<feColorMatrix type="matrix" values="0 0 0 0 0 0 0 0 0 0 0 0 0 0 0 0 0 0 0.15 0"/>
<feBlend mode="normal" in2="BackgroundImageFix" result="effect1_dropShadow_1601_16522"/>
<feBlend mode="normal" in="SourceGraphic" in2="effect1_dropShadow_1601_16522" result="shape"/>
</filter>
<filter id="filter1_d_1601_16522" x="18" y="8" width="7" height="7" filterUnits="userSpaceOnUse" color-interpolation-filters="sRGB">
<feFlood flood-opacity="0" result="BackgroundImageFix"/>
<feColorMatrix in="SourceAlpha" type="matrix" values="0 0 0 0 0 0 0 0 0 0 0 0 0 0 0 0 0 0 127 0" result="hardAlpha"/>
<feOffset/>
<feGaussianBlur stdDeviation="0.5"/>
<feComposite in2="hardAlpha" operator="out"/>
<feColorMatrix type="matrix" values="0 0 0 0 0 0 0 0 0 0 0 0 0 0 0 0 0 0 0.15 0"/>
<feBlend mode="normal" in2="BackgroundImageFix" result="effect1_dropShadow_1601_16522"/>
<feBlend mode="normal" in="SourceGraphic" in2="effect1_dropShadow_1601_16522" result="shape"/>
</filter>
</defs>
</svg>
