<svg width="76" height="76" viewBox="0 0 76 76" fill="none" xmlns="http://www.w3.org/2000/svg">
<circle opacity="0.2" cx="38" cy="38" r="38" fill="#F4B315"/>
<circle opacity="0.2" cx="38" cy="38" r="32" fill="#F4B315"/>
<circle cx="38" cy="38" r="26" fill="#F4B315"/>
<path d="M50.2848 41.0892L48.5898 38.2692C48.2148 37.6542 47.8848 36.4692 47.8848 35.7492V32.9442C47.8848 27.4992 43.4598 23.0742 38.0298 23.0742C32.5848 23.0892 28.1598 27.4992 28.1598 32.9442V35.7342C28.1598 36.4542 27.8298 37.6392 27.4698 38.2542L25.7748 41.0742C25.1298 42.1692 24.9798 43.4142 25.3848 44.4942C25.7898 45.5892 26.7048 46.4592 27.9048 46.8492C29.5248 47.3892 31.1598 47.7792 32.8248 48.0642C32.9898 48.0942 33.1548 48.1092 33.3198 48.1392C33.5298 48.1692 33.7548 48.1992 33.9798 48.2292C34.3698 48.2892 34.7598 48.3342 35.1648 48.3642C36.1098 48.4542 37.0698 48.4992 38.0298 48.4992C38.9748 48.4992 39.9198 48.4542 40.8498 48.3642C41.1948 48.3342 41.5398 48.3042 41.8698 48.2592C42.1398 48.2292 42.4098 48.1992 42.6798 48.1542C42.8448 48.1392 43.0098 48.1092 43.1748 48.0792C44.8548 47.8092 46.5198 47.3892 48.1398 46.8492C49.2948 46.4592 50.1798 45.5892 50.5998 44.4792C51.0198 43.3542 50.8998 42.1242 50.2848 41.0892ZM39.1248 34.9992C39.1248 35.6292 38.6148 36.1392 37.9848 36.1392C37.3548 36.1392 36.8448 35.6292 36.8448 34.9992V30.3492C36.8448 29.7192 37.3548 29.2092 37.9848 29.2092C38.6148 29.2092 39.1248 29.7192 39.1248 30.3492V34.9992Z" fill="#292D32"/>
<path d="M42.2445 50.015C41.6145 51.755 39.9495 53 37.9995 53C36.8145 53 35.6445 52.52 34.8195 51.665C34.3395 51.215 33.9795 50.615 33.7695 50C33.9645 50.03 34.1595 50.045 34.3695 50.075C34.7145 50.12 35.0745 50.165 35.4345 50.195C36.2895 50.27 37.1595 50.315 38.0295 50.315C38.8845 50.315 39.7395 50.27 40.5795 50.195C40.8945 50.165 41.2095 50.15 41.5095 50.105C41.7495 50.075 41.9895 50.045 42.2445 50.015Z" fill="#292D32"/>
</svg>
