<svg width="23" height="24" viewBox="0 0 23 24" fill="none" xmlns="http://www.w3.org/2000/svg">
<path d="M18.9164 10.2083L19.4081 18.45C19.4247 18.675 19.3164 18.825 19.2581 18.8917C19.1914 18.9667 19.0497 19.0833 18.8164 19.0833H16.5414L18.3414 10.2083H18.9164ZM19.8331 7L19.8247 7.01667C19.8414 7.21667 19.8247 7.425 19.7747 7.63333L13.6331 18.9083C13.4331 19.75 12.6831 20.3333 11.8164 20.3333H18.8164C19.8914 20.3333 20.7414 19.425 20.6581 18.35L19.8331 7Z" fill="#CCCCCC"/>
<path d="M11.0415 3.8678C11.1249 3.53447 10.9165 3.1928 10.5832 3.10947C10.2499 3.03447 9.9082 3.23447 9.82487 3.5678L9.4082 5.2928H10.6915L11.0415 3.8678Z" fill="#CCCCCC"/>
<path d="M16.5414 3.84244C16.6164 3.50078 16.3997 3.17578 16.0581 3.10078C15.7247 3.02578 15.3914 3.24244 15.3164 3.58411L14.9414 5.30911H16.2247L16.5414 3.84244Z" fill="#CCCCCC"/>
<path d="M19.6838 6.44349C19.4088 5.77682 18.7588 5.30182 17.9588 5.30182H16.2254L15.7588 7.46016C15.6921 7.75182 15.4338 7.95182 15.1504 7.95182C15.1088 7.95182 15.0588 7.95182 15.0171 7.93516C14.6838 7.86016 14.4671 7.52682 14.5338 7.19349L14.9421 5.29349H10.6921L10.1671 7.46016C10.1004 7.74349 9.84211 7.93516 9.55878 7.93516C9.50878 7.93516 9.45878 7.92682 9.40878 7.91849C9.07545 7.83516 8.86711 7.50182 8.95045 7.16016L9.40045 5.28516H7.70878C6.89211 5.28516 6.16711 5.81849 5.92545 6.60182L2.41711 17.8935C2.05045 19.1018 2.94211 20.3352 4.20045 20.3352H15.1504C16.0171 20.3352 16.7671 19.7518 16.9671 18.9102L19.7754 7.63516C19.8254 7.42682 19.8421 7.21849 19.8254 7.01849C19.8088 6.81849 19.7671 6.61849 19.6838 6.44349ZM13.7504 15.9602H7.08378C6.74211 15.9602 6.45878 15.6768 6.45878 15.3352C6.45878 14.9935 6.74211 14.7102 7.08378 14.7102H13.7504C14.0921 14.7102 14.3754 14.9935 14.3754 15.3352C14.3754 15.6768 14.0921 15.9602 13.7504 15.9602ZM14.5838 12.6268H7.91711C7.57545 12.6268 7.29211 12.3435 7.29211 12.0018C7.29211 11.6602 7.57545 11.3768 7.91711 11.3768H14.5838C14.9254 11.3768 15.2088 11.6602 15.2088 12.0018C15.2088 12.3435 14.9254 12.6268 14.5838 12.6268Z" fill="#CCCCCC"/>
</svg>
