<svg width="20" height="20" viewBox="0 0 20 20" fill="none" xmlns="http://www.w3.org/2000/svg">
<path d="M18.3083 15.0013V15.8346C18.3083 17.2096 18.3083 18.3346 15.8083 18.3346H4.1416C1.6416 18.3346 1.6416 17.2096 1.6416 15.8346V15.0013C1.6416 14.543 2.0166 14.168 2.47493 14.168H17.4749C17.9333 14.168 18.3083 14.543 18.3083 15.0013Z" fill="#292D32"/>
<path d="M12.0079 4.31843C12.0496 4.15176 12.0746 3.99343 12.0829 3.81843C12.1079 2.85176 11.5163 2.00176 10.5829 1.75176C9.18294 1.36843 7.91628 2.41843 7.91628 3.75176C7.91628 3.95176 7.94128 4.1351 7.99128 4.31843C4.98294 4.9601 2.72461 7.6351 2.72461 10.8351V12.0851C2.72461 12.5434 3.09961 12.9184 3.55794 12.9184H16.4329C16.8913 12.9184 17.2663 12.5434 17.2663 12.0851V10.8351C17.2663 7.6351 15.0163 4.96843 12.0079 4.31843ZM12.4996 9.79343H7.49961C7.15794 9.79343 6.87461 9.5101 6.87461 9.16843C6.87461 8.82676 7.15794 8.54343 7.49961 8.54343H12.4996C12.8413 8.54343 13.1246 8.82676 13.1246 9.16843C13.1246 9.5101 12.8413 9.79343 12.4996 9.79343Z" fill="#292D32"/>
</svg>
